<svg width="65" height="65" viewBox="0 0 65 65" fill="none" xmlns="http://www.w3.org/2000/svg">
<path d="M0.321289 32.3213C0.321289 14.6482 14.6482 0.321289 32.3213 0.321289C49.9944 0.321289 64.3213 14.6482 64.3213 32.3213C64.3213 49.9944 49.9944 64.3213 32.3213 64.3213C14.6482 64.3213 0.321289 49.9944 0.321289 32.3213Z" fill="#0052CC" fill-opacity="0.08"/>
<rect x="6.60571" y="6.60577" width="51.431" height="51.431" rx="25.7155" fill="#D8DAE1"/>
<path opacity="0.5" d="M40.727 29.9197H41.9278C42.2463 29.9197 42.5517 30.0462 42.7769 30.2714C43.0021 30.4966 43.1287 30.8021 43.1287 31.1205V43.1289C43.1287 43.4473 43.0021 43.7528 42.7769 43.978C42.5517 44.2032 42.2463 44.3297 41.9278 44.3297H22.7145C22.396 44.3297 22.0906 44.2032 21.8654 43.978C21.6402 43.7528 21.5137 43.4473 21.5137 43.1289V31.1205C21.5137 30.8021 21.6402 30.4966 21.8654 30.2714C22.0906 30.0462 22.396 29.9197 22.7145 29.9197H23.9153V28.7189C23.9153 27.615 24.1328 26.5219 24.5552 25.5021C24.9776 24.4823 25.5968 23.5556 26.3773 22.7751C27.1579 21.9945 28.0846 21.3753 29.1044 20.9529C30.1242 20.5305 31.2173 20.313 32.3212 20.313C33.425 20.313 34.5181 20.5305 35.5379 20.9529C36.5578 21.3753 37.4844 21.9945 38.265 22.7751C39.0455 23.5556 39.6647 24.4823 40.0871 25.5021C40.5096 26.5219 40.727 27.615 40.727 28.7189V29.9197ZM23.9153 32.3214V41.928H40.727V32.3214H23.9153ZM31.1203 34.723H33.522V39.5264H31.1203V34.723ZM38.3253 29.9197V28.7189C38.3253 27.1265 37.6927 25.5993 36.5667 24.4733C35.4408 23.3473 33.9136 22.7147 32.3212 22.7147C30.7288 22.7147 29.2016 23.3473 28.0756 24.4733C26.9496 25.5993 26.317 27.1265 26.317 28.7189V29.9197H38.3253Z" fill="#666D86"/>
</svg>
