<svg width="65" height="65" viewBox="0 0 65 65" fill="none" xmlns="http://www.w3.org/2000/svg">
<path d="M0.321289 32.3213C0.321289 14.6482 14.6482 0.321289 32.3213 0.321289C49.9944 0.321289 64.3213 14.6482 64.3213 32.3213C64.3213 49.9944 49.9944 64.3213 32.3213 64.3213C14.6482 64.3213 0.321289 49.9944 0.321289 32.3213Z" fill="#0052CC" fill-opacity="0.08"/>
<rect x="6.60571" y="6.60577" width="51.431" height="51.431" rx="25.7155" fill="#047453"/>
<path d="M36.6313 38.0214C36.898 38.0214 37.108 38.098 37.2613 38.2513C37.4213 38.398 37.5013 38.5947 37.5013 38.8414V40.3214H27.5813V39.5014C27.5813 39.3347 27.6146 39.1614 27.6813 38.9814C27.7546 38.7947 27.868 38.628 28.0213 38.4813L32.4113 34.0813C32.778 33.708 33.1046 33.3514 33.3913 33.0114C33.6846 32.6713 33.928 32.3347 34.1213 32.0013C34.3146 31.668 34.4613 31.3313 34.5613 30.9913C34.668 30.6447 34.7213 30.2813 34.7213 29.9013C34.7213 29.5547 34.6713 29.2513 34.5713 28.9913C34.4713 28.7247 34.328 28.5013 34.1413 28.3213C33.9613 28.1413 33.7413 28.008 33.4813 27.9214C33.228 27.828 32.9413 27.7813 32.6213 27.7813C32.328 27.7813 32.0546 27.8247 31.8013 27.9113C31.5546 27.9913 31.3346 28.108 31.1413 28.2613C30.948 28.408 30.7846 28.5813 30.6513 28.7813C30.518 28.9813 30.418 29.2013 30.3513 29.4413C30.238 29.748 30.0913 29.9513 29.9113 30.0513C29.7313 30.1513 29.4713 30.1747 29.1313 30.1213L27.8313 29.8913C27.9313 29.198 28.1246 28.5913 28.4113 28.0713C28.698 27.5447 29.0546 27.108 29.4813 26.7613C29.9146 26.408 30.408 26.1447 30.9613 25.9713C31.5213 25.7913 32.1213 25.7013 32.7613 25.7013C33.428 25.7013 34.038 25.8013 34.5913 26.0013C35.1446 26.1947 35.618 26.4713 36.0113 26.8313C36.4046 27.1913 36.7113 27.6247 36.9313 28.1313C37.1513 28.638 37.2613 29.2013 37.2613 29.8213C37.2613 30.3547 37.1813 30.848 37.0213 31.3013C36.868 31.7547 36.658 32.188 36.3913 32.6013C36.1313 33.0147 35.8246 33.4147 35.4713 33.8013C35.118 34.188 34.748 34.5813 34.3613 34.9813L31.1013 38.3114C31.4146 38.218 31.7246 38.148 32.0313 38.1013C32.3446 38.048 32.6413 38.0214 32.9213 38.0214H36.6313Z" fill="white"/>
</svg>
