<svg width="32" height="30" viewBox="0 0 32 30" fill="none" xmlns="http://www.w3.org/2000/svg">
<path d="M12.1085 14.589H9.90692C9.28774 14.589 8.80615 15.1394 8.80615 15.6898V28.899C8.80615 29.5182 9.28774 29.9997 9.90692 29.9997H12.1085C12.6588 29.9997 13.2092 29.5182 13.2092 28.899V15.6898C13.2092 15.1394 12.6588 14.589 12.1085 14.589ZM3.30231 21.1936H1.10077C0.481586 21.1936 0 21.744 0 22.2944V28.899C0 29.5182 0.481586 29.9997 1.10077 29.9997H3.30231C3.85269 29.9997 4.40307 29.5182 4.40307 28.899V22.2944C4.40307 21.744 3.85269 21.1936 3.30231 21.1936ZM20.9146 7.98437H18.7131C18.0939 7.98437 17.6123 8.53476 17.6123 9.08514V28.899C17.6123 29.5182 18.0939 29.9997 18.7131 29.9997H20.9146C21.465 29.9997 22.0154 29.5182 22.0154 28.899V9.08514C22.0154 8.53476 21.465 7.98437 20.9146 7.98437Z" fill="#00A79D"/>
<path d="M27.7394 0.939453H29.9409C30.4913 0.939453 31.0417 1.48984 31.0417 2.04022V28.899C31.0417 29.5182 30.4913 29.9997 29.9409 29.9997H27.7394C27.1202 29.9997 26.6386 29.5182 26.6386 28.899V2.04022C26.6386 1.48984 27.1202 0.939453 27.7394 0.939453Z" fill="#00A79D"/>
</svg>
