<svg width="49" height="48" viewBox="0 0 49 48" fill="none" xmlns="http://www.w3.org/2000/svg">
<g filter="url(#filter0_d_1_3532)">
<path fill-rule="evenodd" clip-rule="evenodd" d="M24.5 40C34.4411 40 42.5 31.9411 42.5 22C42.5 12.0589 34.4411 4 24.5 4C14.5589 4 6.5 12.0589 6.5 22C6.5 31.9411 14.5589 40 24.5 40Z" fill="white"/>
</g>
<path fill-rule="evenodd" clip-rule="evenodd" d="M24.5 16.4066C25.6864 15.5169 27.4045 15.1934 29 15.1934C30.1864 15.1934 31.4464 15.3713 32.4936 15.8324C33.0909 16.0993 33.4918 16.6735 33.4918 17.3286V26.4518C33.4918 27.5113 32.4936 28.2877 31.4627 28.0208C30.6609 27.8186 29.81 27.7297 28.9918 27.7297C27.7155 27.7297 26.3573 27.9319 25.2609 28.4738C24.7782 28.7164 24.2218 28.7164 23.7309 28.4738C22.6345 27.94 21.2764 27.7297 20 27.7297C19.1818 27.7297 18.3309 27.8186 17.5291 28.0208C16.4982 28.2796 15.5 27.5032 15.5 26.4518V17.3286C15.5 16.6735 15.9009 16.0993 16.4982 15.8324C17.5536 15.3713 18.8136 15.1934 20 15.1934C21.5955 15.1934 23.3136 15.5169 24.5 16.4066ZM30.8818 26.2819C31.3891 26.3709 31.8636 25.9989 31.8636 25.4893V17.8301C31.8636 17.4499 31.5855 17.1183 31.2091 17.0374C30.4973 16.8838 29.7527 16.811 29 16.811C27.6091 16.811 25.6045 17.3367 24.5 18.0242V27.3334C25.6045 26.6459 27.6091 26.1202 29 26.1202C29.63 26.1202 30.2682 26.1687 30.8818 26.2819Z" fill="#E8E8E8"/>
<path d="M26.1201 20.4586C25.8583 20.4586 25.621 20.2969 25.5392 20.0381C25.4328 19.7226 25.6128 19.3749 25.9319 19.2778C27.1919 18.8734 28.8201 18.744 30.3174 18.9138C30.6528 18.9543 30.8983 19.2535 30.8574 19.5851C30.8165 19.9167 30.5137 20.1594 30.1783 20.1189C28.8528 19.9653 27.4046 20.0866 26.3083 20.4344C26.2428 20.4425 26.1774 20.4586 26.1201 20.4586Z" fill="#E8E8E8"/>
<path d="M26.1201 22.61C25.8583 22.61 25.621 22.4483 25.5392 22.1895C25.4328 21.874 25.6128 21.5262 25.9319 21.4292C27.1837 21.0248 28.8201 20.8954 30.3174 21.0652C30.6528 21.1057 30.8983 21.4049 30.8574 21.7365C30.8165 22.0681 30.5137 22.3108 30.1783 22.2703C28.8528 22.1167 27.4046 22.238 26.3083 22.5858C26.2428 22.6019 26.1774 22.61 26.1201 22.61Z" fill="#E8E8E8"/>
<path d="M26.1201 24.7614C25.8583 24.7614 25.621 24.5996 25.5392 24.3408C25.4328 24.0254 25.6128 23.6776 25.9319 23.5806C27.1837 23.1762 28.8201 23.0468 30.3174 23.2166C30.6528 23.2571 30.8983 23.5563 30.8574 23.8879C30.8165 24.2195 30.5137 24.4541 30.1783 24.4217C28.8528 24.268 27.4046 24.3894 26.3083 24.7371C26.2428 24.7533 26.1774 24.7614 26.1201 24.7614Z" fill="#E8E8E8"/>
<defs>
<filter id="filter0_d_1_3532" x="0.5" y="0" width="48" height="48" filterUnits="userSpaceOnUse" color-interpolation-filters="sRGB">
<feFlood flood-opacity="0" result="BackgroundImageFix"/>
<feColorMatrix in="SourceAlpha" type="matrix" values="0 0 0 0 0 0 0 0 0 0 0 0 0 0 0 0 0 0 127 0" result="hardAlpha"/>
<feOffset dy="2"/>
<feGaussianBlur stdDeviation="3"/>
<feColorMatrix type="matrix" values="0 0 0 0 0.180392 0 0 0 0 0.239216 0 0 0 0 0.286275 0 0 0 0.2 0"/>
<feBlend mode="normal" in2="BackgroundImageFix" result="effect1_dropShadow_1_3532"/>
<feBlend mode="normal" in="SourceGraphic" in2="effect1_dropShadow_1_3532" result="shape"/>
</filter>
</defs>
</svg>
