<svg width="24" height="24" viewBox="0 0 24 24" fill="none" xmlns="http://www.w3.org/2000/svg">
<path fill-rule="evenodd" clip-rule="evenodd" d="M6.42857 6.42857C6.9 6.42857 7.28571 6.04286 7.28571 5.57143V3.42857V2.57143V0.857143C7.28571 0.385714 6.9 0 6.42857 0C5.95714 0 5.57143 0.385714 5.57143 0.857143V2.57143V3.42857V5.57143C5.57143 6.04286 5.95714 6.42857 6.42857 6.42857ZM19.2857 2.57143H22.176C22.8831 2.57143 23.4617 3.15 23.4617 3.85714V8.57143H22.6045H1.42184H0.564697V3.85714C0.564697 3.15 1.14327 2.57143 1.85041 2.57143H4.71429V3.42857V5.57143C4.71429 6.51857 5.48143 7.28571 6.42857 7.28571C7.37571 7.28571 8.14286 6.51857 8.14286 5.57143V3.42857V2.57143H15.8571V3.42857V5.57143C15.8571 6.51857 16.6243 7.28571 17.5714 7.28571C18.5186 7.28571 19.2857 6.51857 19.2857 5.57143V3.42857V2.57143ZM1.85041 24C1.14327 24 0.564697 23.4214 0.564697 22.7143V9.42857H23.4617V22.7143C23.4617 23.4214 22.8831 24 22.176 24H1.85041ZM16.7143 11.5714C16.4786 11.5714 16.2857 11.7643 16.2857 12V15.4286C16.2857 15.6643 16.4786 15.8571 16.7143 15.8571H20.1429C20.3786 15.8571 20.5714 15.6643 20.5714 15.4286V12C20.5714 11.7643 20.3786 11.5714 20.1429 11.5714H16.7143ZM9.85714 12C9.85714 11.7643 10.05 11.5714 10.2857 11.5714H13.7143C13.95 11.5714 14.1429 11.7643 14.1429 12V15.4286C14.1429 15.6643 13.95 15.8571 13.7143 15.8571H10.2857C10.05 15.8571 9.85714 15.6643 9.85714 15.4286V12ZM10.2857 17.1429C10.05 17.1429 9.85714 17.3357 9.85714 17.5714V21C9.85714 21.2357 10.05 21.4286 10.2857 21.4286H13.7143C13.95 21.4286 14.1429 21.2357 14.1429 21V17.5714C14.1429 17.3357 13.95 17.1429 13.7143 17.1429H10.2857ZM3.42857 17.5714C3.42857 17.3357 3.62143 17.1429 3.85714 17.1429H7.28571C7.52143 17.1429 7.71429 17.3357 7.71429 17.5714V21C7.71429 21.2357 7.52143 21.4286 7.28571 21.4286H3.85714C3.62143 21.4286 3.42857 21.2357 3.42857 21V17.5714ZM18.4286 5.57143C18.4286 6.04286 18.0429 6.42857 17.5714 6.42857C17.1 6.42857 16.7143 6.04286 16.7143 5.57143V3.42857V2.57143V0.857143C16.7143 0.385714 17.1 0 17.5714 0C18.0429 0 18.4286 0.385714 18.4286 0.857143V2.57143V3.42857V5.57143Z" fill="white"/>
</svg>
