<svg width="518" height="306" viewBox="0 0 518 306" fill="none" xmlns="http://www.w3.org/2000/svg">
<path d="M237.942 288.89C237.942 290.176 237.738 291.357 237.331 292.435C236.924 293.505 236.349 294.427 235.607 295.201C234.864 295.976 233.97 296.578 232.924 297.01C231.886 297.433 230.737 297.644 229.475 297.644C228.214 297.644 227.064 297.433 226.026 297.01C224.989 296.578 224.098 295.976 223.356 295.201C222.613 294.427 222.039 293.505 221.631 292.435C221.224 291.357 221.021 290.176 221.021 288.89C221.021 287.605 221.224 286.427 221.631 285.358C222.039 284.28 222.613 283.354 223.356 282.579C224.098 281.797 224.989 281.19 226.026 280.759C227.064 280.328 228.214 280.112 229.475 280.112C230.737 280.112 231.886 280.328 232.924 280.759C233.97 281.19 234.864 281.797 235.607 282.579C236.349 283.354 236.924 284.28 237.331 285.358C237.738 286.427 237.942 287.605 237.942 288.89ZM235.559 288.89C235.559 287.836 235.415 286.89 235.128 286.052C234.84 285.214 234.433 284.507 233.906 283.933C233.379 283.35 232.741 282.903 231.99 282.591C231.24 282.28 230.401 282.124 229.475 282.124C228.557 282.124 227.723 282.28 226.972 282.591C226.222 282.903 225.579 283.35 225.044 283.933C224.518 284.507 224.11 285.214 223.823 286.052C223.536 286.89 223.392 287.836 223.392 288.89C223.392 289.944 223.536 290.89 223.823 291.728C224.11 292.559 224.518 293.265 225.044 293.848C225.579 294.423 226.222 294.866 226.972 295.177C227.723 295.481 228.557 295.632 229.475 295.632C230.401 295.632 231.24 295.481 231.99 295.177C232.741 294.866 233.379 294.423 233.906 293.848C234.433 293.265 234.84 292.559 235.128 291.728C235.415 290.89 235.559 289.944 235.559 288.89ZM242.792 294.543C243.183 295.07 243.611 295.441 244.074 295.656C244.545 295.872 245.06 295.98 245.618 295.98C246.76 295.98 247.634 295.577 248.241 294.77C248.848 293.964 249.151 292.762 249.151 291.166C249.151 289.681 248.88 288.591 248.337 287.896C247.802 287.194 247.036 286.843 246.038 286.843C245.343 286.843 244.736 287.002 244.217 287.322C243.706 287.641 243.231 288.092 242.792 288.675V294.543ZM242.792 287.082C243.303 286.491 243.878 286.02 244.517 285.669C245.163 285.318 245.906 285.142 246.744 285.142C247.455 285.142 248.093 285.278 248.66 285.549C249.235 285.821 249.722 286.216 250.121 286.735C250.52 287.246 250.824 287.868 251.031 288.603C251.247 289.337 251.355 290.164 251.355 291.082C251.355 292.064 251.235 292.958 250.995 293.764C250.756 294.571 250.409 295.261 249.954 295.836C249.506 296.403 248.96 296.846 248.313 297.165C247.666 297.477 246.94 297.632 246.133 297.632C245.335 297.632 244.66 297.485 244.11 297.189C243.567 296.886 243.092 296.459 242.685 295.908L242.577 297.01C242.513 297.313 242.329 297.465 242.026 297.465H240.649V279.825H242.792V287.082ZM256.422 285.334V298.363C256.422 298.85 256.358 299.301 256.23 299.716C256.103 300.139 255.899 300.506 255.62 300.818C255.34 301.129 254.981 301.373 254.542 301.548C254.111 301.732 253.592 301.824 252.985 301.824C252.73 301.824 252.494 301.804 252.278 301.764C252.063 301.724 251.847 301.664 251.632 301.584L251.716 300.435C251.732 300.363 251.76 300.307 251.799 300.267C251.831 300.235 251.879 300.215 251.943 300.207C252.007 300.199 252.091 300.195 252.195 300.195C252.29 300.203 252.414 300.207 252.566 300.207C253.189 300.207 253.632 300.059 253.895 299.764C254.159 299.477 254.29 299.009 254.29 298.363V285.334H256.422ZM256.865 281.525C256.865 281.733 256.821 281.929 256.733 282.112C256.653 282.288 256.542 282.448 256.398 282.591C256.262 282.727 256.103 282.835 255.919 282.915C255.735 282.994 255.54 283.034 255.332 283.034C255.125 283.034 254.929 282.994 254.745 282.915C254.57 282.835 254.414 282.727 254.278 282.591C254.143 282.448 254.035 282.288 253.955 282.112C253.875 281.929 253.835 281.733 253.835 281.525C253.835 281.318 253.875 281.122 253.955 280.939C254.035 280.747 254.143 280.583 254.278 280.448C254.414 280.304 254.57 280.192 254.745 280.112C254.929 280.033 255.125 279.993 255.332 279.993C255.54 279.993 255.735 280.033 255.919 280.112C256.103 280.192 256.262 280.304 256.398 280.448C256.542 280.583 256.653 280.747 256.733 280.939C256.821 281.122 256.865 281.318 256.865 281.525ZM268.163 290.076C268.163 289.581 268.092 289.13 267.948 288.723C267.812 288.308 267.609 287.952 267.337 287.657C267.074 287.353 266.75 287.122 266.367 286.962C265.984 286.795 265.549 286.711 265.062 286.711C264.04 286.711 263.23 287.01 262.631 287.609C262.04 288.2 261.673 289.022 261.529 290.076H268.163ZM269.888 295.764C269.624 296.084 269.309 296.363 268.942 296.602C268.575 296.834 268.179 297.026 267.756 297.177C267.341 297.329 266.91 297.441 266.463 297.513C266.016 297.592 265.573 297.632 265.134 297.632C264.295 297.632 263.521 297.493 262.81 297.213C262.108 296.926 261.497 296.511 260.978 295.968C260.467 295.417 260.068 294.738 259.781 293.932C259.493 293.126 259.35 292.199 259.35 291.154C259.35 290.307 259.477 289.517 259.733 288.783C259.996 288.048 260.371 287.413 260.858 286.878C261.345 286.336 261.94 285.912 262.643 285.609C263.345 285.298 264.136 285.142 265.014 285.142C265.74 285.142 266.411 285.266 267.026 285.513C267.648 285.753 268.183 286.104 268.63 286.567C269.086 287.022 269.441 287.589 269.696 288.268C269.952 288.938 270.079 289.705 270.079 290.567C270.079 290.902 270.044 291.126 269.972 291.237C269.9 291.349 269.764 291.405 269.565 291.405H261.457C261.481 292.172 261.585 292.838 261.769 293.405C261.96 293.972 262.224 294.447 262.559 294.83C262.894 295.205 263.293 295.489 263.756 295.68C264.22 295.864 264.738 295.956 265.313 295.956C265.848 295.956 266.307 295.896 266.69 295.776C267.082 295.648 267.417 295.513 267.696 295.369C267.976 295.225 268.207 295.094 268.391 294.974C268.583 294.846 268.746 294.782 268.882 294.782C269.058 294.782 269.193 294.85 269.289 294.986L269.888 295.764ZM283.981 297.465H281.849V287.118H275.598V294.399C275.598 294.91 275.722 295.289 275.969 295.537C276.217 295.784 276.536 295.908 276.927 295.908C277.151 295.908 277.342 295.88 277.502 295.824C277.67 295.76 277.813 295.692 277.933 295.62C278.053 295.549 278.153 295.485 278.233 295.429C278.32 295.365 278.396 295.333 278.46 295.333C278.572 295.333 278.672 295.401 278.76 295.537L279.382 296.555C279.015 296.898 278.572 297.169 278.053 297.369C277.534 297.56 276.999 297.656 276.448 297.656C275.49 297.656 274.752 297.389 274.233 296.854C273.722 296.319 273.466 295.549 273.466 294.543V287.118H272.005C271.878 287.118 271.77 287.082 271.682 287.01C271.594 286.93 271.55 286.811 271.55 286.651V285.801L273.538 285.537L274.029 281.801C274.053 281.681 274.105 281.585 274.185 281.513C274.273 281.434 274.385 281.394 274.52 281.394H275.598V285.573H283.981V297.465ZM284.508 281.442C284.508 281.649 284.464 281.845 284.376 282.028C284.296 282.204 284.184 282.36 284.041 282.495C283.905 282.631 283.745 282.739 283.562 282.819C283.378 282.899 283.182 282.939 282.975 282.939C282.767 282.939 282.572 282.899 282.388 282.819C282.212 282.739 282.057 282.631 281.921 282.495C281.785 282.36 281.678 282.204 281.598 282.028C281.518 281.845 281.478 281.649 281.478 281.442C281.478 281.234 281.518 281.038 281.598 280.855C281.678 280.663 281.785 280.5 281.921 280.364C282.057 280.22 282.212 280.108 282.388 280.029C282.572 279.949 282.767 279.909 282.975 279.909C283.182 279.909 283.378 279.949 283.562 280.029C283.745 280.108 283.905 280.22 284.041 280.364C284.184 280.5 284.296 280.663 284.376 280.855C284.464 281.038 284.508 281.234 284.508 281.442ZM297.997 285.334L293.051 297.465H291.135L286.189 285.334H287.926C288.101 285.334 288.245 285.378 288.357 285.465C288.469 285.553 288.544 285.657 288.584 285.777L291.662 293.585C291.758 293.88 291.842 294.167 291.914 294.447C291.985 294.726 292.053 295.006 292.117 295.285C292.181 295.006 292.249 294.726 292.321 294.447C292.393 294.167 292.48 293.88 292.584 293.585L295.698 285.777C295.746 285.649 295.825 285.545 295.937 285.465C296.049 285.378 296.181 285.334 296.332 285.334H297.997ZM302.323 285.334V297.465H300.192V285.334H302.323ZM302.778 281.525C302.778 281.733 302.734 281.929 302.646 282.112C302.567 282.288 302.455 282.448 302.311 282.591C302.175 282.727 302.012 282.835 301.82 282.915C301.637 282.994 301.441 283.034 301.233 283.034C301.026 283.034 300.83 282.994 300.647 282.915C300.471 282.835 300.315 282.727 300.18 282.591C300.044 282.448 299.936 282.288 299.856 282.112C299.776 281.929 299.736 281.733 299.736 281.525C299.736 281.318 299.776 281.122 299.856 280.939C299.936 280.747 300.044 280.583 300.18 280.448C300.315 280.304 300.471 280.192 300.647 280.112C300.83 280.033 301.026 279.993 301.233 279.993C301.441 279.993 301.637 280.033 301.82 280.112C302.012 280.192 302.175 280.304 302.311 280.448C302.455 280.583 302.567 280.747 302.646 280.939C302.734 281.122 302.778 281.318 302.778 281.525ZM313.849 288.22C313.45 287.685 313.019 287.314 312.556 287.106C312.093 286.89 311.574 286.783 310.999 286.783C309.873 286.783 309.007 287.186 308.4 287.992C307.793 288.798 307.49 289.948 307.49 291.441C307.49 292.231 307.558 292.91 307.694 293.477C307.829 294.036 308.029 294.499 308.292 294.866C308.556 295.225 308.879 295.489 309.262 295.656C309.646 295.824 310.081 295.908 310.568 295.908C311.27 295.908 311.881 295.748 312.4 295.429C312.927 295.11 313.41 294.658 313.849 294.076V288.22ZM315.981 279.825V297.465H314.711C314.408 297.465 314.216 297.317 314.136 297.022L313.945 295.549C313.426 296.171 312.835 296.674 312.172 297.057C311.51 297.441 310.743 297.632 309.873 297.632C309.179 297.632 308.548 297.501 307.981 297.237C307.414 296.966 306.931 296.571 306.532 296.052C306.133 295.533 305.826 294.886 305.61 294.112C305.394 293.337 305.287 292.447 305.287 291.441C305.287 290.547 305.406 289.717 305.646 288.95C305.885 288.176 306.229 287.505 306.676 286.938C307.123 286.371 307.67 285.928 308.316 285.609C308.971 285.282 309.706 285.118 310.52 285.118C311.262 285.118 311.897 285.246 312.424 285.501C312.959 285.749 313.434 286.096 313.849 286.543V279.825H315.981ZM326.042 292.004C325.06 292.036 324.221 292.116 323.527 292.243C322.84 292.363 322.277 292.523 321.838 292.722C321.407 292.922 321.092 293.158 320.892 293.429C320.701 293.7 320.605 294.004 320.605 294.339C320.605 294.658 320.657 294.934 320.76 295.165C320.864 295.397 321.004 295.589 321.18 295.74C321.363 295.884 321.575 295.992 321.814 296.064C322.062 296.127 322.325 296.159 322.605 296.159C322.98 296.159 323.323 296.123 323.635 296.052C323.946 295.972 324.237 295.86 324.509 295.716C324.788 295.573 325.052 295.401 325.299 295.201C325.555 295.002 325.802 294.774 326.042 294.519V292.004ZM319.156 287.046C319.826 286.399 320.549 285.916 321.323 285.597C322.098 285.278 322.956 285.118 323.898 285.118C324.577 285.118 325.179 285.23 325.706 285.453C326.233 285.677 326.676 285.988 327.036 286.387C327.395 286.787 327.666 287.27 327.85 287.836C328.034 288.403 328.125 289.026 328.125 289.705V297.465H327.179C326.972 297.465 326.812 297.433 326.7 297.369C326.588 297.297 326.501 297.161 326.437 296.962L326.197 295.812C325.878 296.107 325.567 296.371 325.263 296.602C324.96 296.826 324.641 297.018 324.305 297.177C323.97 297.329 323.611 297.445 323.227 297.525C322.852 297.612 322.433 297.656 321.97 297.656C321.499 297.656 321.056 297.592 320.641 297.465C320.226 297.329 319.862 297.129 319.551 296.866C319.248 296.602 319.004 296.271 318.82 295.872C318.645 295.465 318.557 294.986 318.557 294.435C318.557 293.956 318.689 293.497 318.952 293.058C319.216 292.611 319.643 292.215 320.234 291.872C320.824 291.529 321.595 291.249 322.545 291.034C323.495 290.81 324.66 290.683 326.042 290.651V289.705C326.042 288.763 325.838 288.052 325.431 287.573C325.024 287.086 324.429 286.843 323.647 286.843C323.12 286.843 322.677 286.91 322.317 287.046C321.966 287.174 321.659 287.322 321.395 287.489C321.14 287.649 320.916 287.797 320.725 287.932C320.541 288.06 320.357 288.124 320.174 288.124C320.03 288.124 319.906 288.088 319.802 288.016C319.699 287.936 319.611 287.84 319.539 287.729L319.156 287.046ZM339.396 288.22C338.997 287.685 338.566 287.314 338.102 287.106C337.639 286.89 337.121 286.783 336.546 286.783C335.42 286.783 334.554 287.186 333.947 287.992C333.34 288.798 333.037 289.948 333.037 291.441C333.037 292.231 333.105 292.91 333.24 293.477C333.376 294.036 333.576 294.499 333.839 294.866C334.103 295.225 334.426 295.489 334.809 295.656C335.192 295.824 335.628 295.908 336.115 295.908C336.817 295.908 337.428 295.748 337.947 295.429C338.474 295.11 338.957 294.658 339.396 294.076V288.22ZM341.527 279.825V297.465H340.258C339.955 297.465 339.763 297.317 339.683 297.022L339.492 295.549C338.973 296.171 338.382 296.674 337.719 297.057C337.057 297.441 336.29 297.632 335.42 297.632C334.725 297.632 334.095 297.501 333.528 297.237C332.961 296.966 332.478 296.571 332.079 296.052C331.68 295.533 331.372 294.886 331.157 294.112C330.941 293.337 330.833 292.447 330.833 291.441C330.833 290.547 330.953 289.717 331.193 288.95C331.432 288.176 331.776 287.505 332.223 286.938C332.67 286.371 333.217 285.928 333.863 285.609C334.518 285.282 335.252 285.118 336.067 285.118C336.809 285.118 337.444 285.246 337.971 285.501C338.506 285.749 338.981 286.096 339.396 286.543V279.825H341.527ZM353.133 290.076C353.133 289.581 353.061 289.13 352.918 288.723C352.782 288.308 352.578 287.952 352.307 287.657C352.043 287.353 351.72 287.122 351.337 286.962C350.954 286.795 350.519 286.711 350.032 286.711C349.01 286.711 348.199 287.01 347.601 287.609C347.01 288.2 346.643 289.022 346.499 290.076H353.133ZM354.858 295.764C354.594 296.084 354.279 296.363 353.912 296.602C353.544 296.834 353.149 297.026 352.726 297.177C352.311 297.329 351.88 297.441 351.433 297.513C350.986 297.592 350.543 297.632 350.103 297.632C349.265 297.632 348.491 297.493 347.78 297.213C347.078 296.926 346.467 296.511 345.948 295.968C345.437 295.417 345.038 294.738 344.75 293.932C344.463 293.126 344.319 292.199 344.319 291.154C344.319 290.307 344.447 289.517 344.703 288.783C344.966 288.048 345.341 287.413 345.828 286.878C346.315 286.336 346.91 285.912 347.613 285.609C348.315 285.298 349.106 285.142 349.984 285.142C350.71 285.142 351.381 285.266 351.996 285.513C352.618 285.753 353.153 286.104 353.6 286.567C354.055 287.022 354.411 287.589 354.666 288.268C354.922 288.938 355.049 289.705 355.049 290.567C355.049 290.902 355.013 291.126 354.942 291.237C354.87 291.349 354.734 291.405 354.534 291.405H346.427C346.451 292.172 346.555 292.838 346.738 293.405C346.93 293.972 347.193 294.447 347.529 294.83C347.864 295.205 348.263 295.489 348.726 295.68C349.189 295.864 349.708 295.956 350.283 295.956C350.818 295.956 351.277 295.896 351.66 295.776C352.051 295.648 352.387 295.513 352.666 295.369C352.946 295.225 353.177 295.094 353.361 294.974C353.552 294.846 353.716 294.782 353.852 294.782C354.027 294.782 354.163 294.85 354.259 294.986L354.858 295.764Z" fill="#484D5F"/>
<path d="M423.235 90.8541C423.363 90.8541 423.475 90.906 423.571 91.0098L424.493 92.0037C423.79 92.8181 422.936 93.4528 421.93 93.9078C420.932 94.3629 419.722 94.5904 418.301 94.5904C417.072 94.5904 415.954 94.3789 414.948 93.9557C413.942 93.5246 413.084 92.9258 412.374 92.1594C411.663 91.385 411.112 90.4589 410.721 89.3811C410.33 88.3034 410.134 87.1178 410.134 85.8245C410.134 84.5311 410.338 83.3456 410.745 82.2678C411.152 81.19 411.723 80.2639 412.457 79.4895C413.2 78.7151 414.086 78.1163 415.116 77.6932C416.146 77.2621 417.283 77.0465 418.529 77.0465C419.75 77.0465 420.828 77.2421 421.762 77.6333C422.696 78.0245 423.519 78.5554 424.229 79.226L423.463 80.2918C423.415 80.3717 423.351 80.4395 423.271 80.4954C423.199 80.5433 423.1 80.5673 422.972 80.5673C422.828 80.5673 422.652 80.4914 422.445 80.3397C422.237 80.1801 421.966 80.0044 421.631 79.8128C421.295 79.6212 420.876 79.4496 420.373 79.2979C419.87 79.1382 419.251 79.0584 418.517 79.0584C417.631 79.0584 416.82 79.2141 416.086 79.5254C415.351 79.8288 414.717 80.2719 414.182 80.8547C413.655 81.4375 413.244 82.148 412.948 82.9863C412.653 83.8246 412.505 84.7706 412.505 85.8245C412.505 86.8943 412.657 87.8483 412.96 88.6866C413.272 89.5248 413.691 90.2354 414.218 90.8182C414.753 91.393 415.379 91.8321 416.098 92.1355C416.824 92.4388 417.607 92.5905 418.445 92.5905C418.956 92.5905 419.415 92.5626 419.822 92.5067C420.237 92.4428 420.617 92.347 420.96 92.2193C421.311 92.0916 421.635 91.9319 421.93 91.7403C422.233 91.5407 422.533 91.3052 422.828 91.0337C422.964 90.914 423.1 90.8541 423.235 90.8541ZM429.007 76.7591V94.3988H426.875V76.7591H429.007ZM439.158 88.938C438.176 88.97 437.337 89.0498 436.643 89.1776C435.956 89.2973 435.393 89.457 434.954 89.6566C434.523 89.8562 434.208 90.0917 434.008 90.3631C433.817 90.6346 433.721 90.9379 433.721 91.2732C433.721 91.5926 433.773 91.868 433.876 92.0995C433.98 92.3311 434.12 92.5227 434.296 92.6744C434.479 92.8181 434.691 92.9258 434.93 92.9977C435.178 93.0616 435.441 93.0935 435.721 93.0935C436.096 93.0935 436.439 93.0576 436.751 92.9857C437.062 92.9059 437.353 92.7941 437.625 92.6504C437.904 92.5067 438.168 92.3351 438.415 92.1355C438.671 91.9359 438.918 91.7083 439.158 91.4529V88.938ZM432.272 83.9802C432.942 83.3336 433.665 82.8506 434.439 82.5312C435.214 82.2119 436.072 82.0522 437.014 82.0522C437.693 82.0522 438.295 82.164 438.822 82.3875C439.349 82.6111 439.792 82.9224 440.152 83.3216C440.511 83.7208 440.782 84.2038 440.966 84.7706C441.149 85.3375 441.241 85.9602 441.241 86.6388V94.3988H440.295C440.088 94.3988 439.928 94.3669 439.816 94.303C439.704 94.2312 439.617 94.0954 439.553 93.8958L439.313 92.7462C438.994 93.0416 438.683 93.3051 438.379 93.5366C438.076 93.7601 437.756 93.9517 437.421 94.1114C437.086 94.2631 436.727 94.3789 436.343 94.4587C435.968 94.5465 435.549 94.5904 435.086 94.5904C434.615 94.5904 434.172 94.5265 433.757 94.3988C433.342 94.2631 432.978 94.0635 432.667 93.8C432.364 93.5366 432.12 93.2053 431.936 92.8061C431.761 92.3989 431.673 91.9199 431.673 91.369C431.673 90.89 431.805 90.431 432.068 89.9919C432.332 89.5448 432.759 89.1496 433.35 88.8063C433.94 88.463 434.711 88.1836 435.661 87.968C436.611 87.7445 437.776 87.6168 439.158 87.5848V86.6388C439.158 85.6967 438.954 84.9862 438.547 84.5072C438.14 84.0202 437.545 83.7767 436.763 83.7767C436.236 83.7767 435.793 83.8445 435.433 83.9802C435.082 84.108 434.775 84.2557 434.511 84.4233C434.256 84.583 434.032 84.7307 433.841 84.8664C433.657 84.9942 433.473 85.058 433.29 85.058C433.146 85.058 433.022 85.0221 432.918 84.9503C432.815 84.8704 432.727 84.7746 432.655 84.6628L432.272 83.9802ZM446.632 84.6988C447.015 83.8685 447.486 83.2218 448.045 82.7588C448.604 82.2877 449.286 82.0522 450.093 82.0522C450.348 82.0522 450.592 82.0802 450.823 82.136C451.063 82.1919 451.274 82.2797 451.458 82.3995L451.302 83.9922C451.254 84.1918 451.135 84.2916 450.943 84.2916C450.831 84.2916 450.668 84.2677 450.452 84.2198C450.236 84.1719 449.993 84.1479 449.722 84.1479C449.338 84.1479 448.995 84.2038 448.692 84.3156C448.396 84.4273 448.129 84.595 447.889 84.8185C447.658 85.0341 447.446 85.3055 447.255 85.6328C447.071 85.9522 446.903 86.3194 446.752 86.7346V94.3988H444.608V82.2678H445.83C446.061 82.2678 446.221 82.3117 446.309 82.3995C446.396 82.4873 446.456 82.639 446.488 82.8546L446.632 84.6988ZM461.08 87.01C461.08 86.515 461.008 86.064 460.865 85.6568C460.729 85.2417 460.525 84.8864 460.254 84.591C459.99 84.2876 459.667 84.0561 459.284 83.8964C458.901 83.7288 458.466 83.6449 457.979 83.6449C456.957 83.6449 456.146 83.9443 455.548 84.5431C454.957 85.1339 454.59 85.9562 454.446 87.01H461.08ZM462.805 92.6983C462.541 93.0177 462.226 93.2971 461.859 93.5366C461.491 93.7681 461.096 93.9597 460.673 94.1114C460.258 94.2631 459.827 94.3749 459.38 94.4467C458.933 94.5265 458.489 94.5665 458.05 94.5665C457.212 94.5665 456.438 94.4268 455.727 94.1473C455.025 93.8599 454.414 93.4448 453.895 92.9019C453.384 92.351 452.985 91.6724 452.697 90.8661C452.41 90.0597 452.266 89.1336 452.266 88.0878C452.266 87.2415 452.394 86.4512 452.65 85.7167C452.913 84.9822 453.288 84.3475 453.775 83.8126C454.262 83.2697 454.857 82.8466 455.56 82.5432C456.262 82.2318 457.052 82.0762 457.931 82.0762C458.657 82.0762 459.328 82.1999 459.943 82.4474C460.565 82.6869 461.1 83.0382 461.547 83.5012C462.002 83.9563 462.358 84.5231 462.613 85.2017C462.868 85.8724 462.996 86.6388 462.996 87.501C462.996 87.8363 462.96 88.0599 462.888 88.1716C462.817 88.2834 462.681 88.3393 462.481 88.3393H454.374C454.398 89.1057 454.502 89.7723 454.685 90.3392C454.877 90.906 455.14 91.381 455.476 91.7642C455.811 92.1395 456.21 92.4229 456.673 92.6145C457.136 92.7981 457.655 92.8899 458.23 92.8899C458.765 92.8899 459.224 92.83 459.607 92.7103C459.998 92.5825 460.334 92.4468 460.613 92.3031C460.893 92.1594 461.124 92.0277 461.308 91.9079C461.499 91.7802 461.663 91.7163 461.799 91.7163C461.974 91.7163 462.11 91.7842 462.206 91.9199L462.805 92.6983ZM474.105 83.1779C474.105 83.3296 474.077 83.4773 474.021 83.621C473.973 83.7647 473.905 83.8884 473.818 83.9922L467.243 92.7342H473.878V94.3988H464.74V93.5126C464.74 93.4088 464.764 93.2891 464.812 93.1534C464.86 93.0097 464.932 92.8739 465.028 92.7462L471.638 83.9443H465.112V82.2678H474.105V83.1779ZM483.258 88.938C482.276 88.97 481.438 89.0498 480.743 89.1776C480.056 89.2973 479.494 89.457 479.054 89.6566C478.623 89.8562 478.308 90.0917 478.108 90.3631C477.917 90.6346 477.821 90.9379 477.821 91.2732C477.821 91.5926 477.873 91.868 477.977 92.0995C478.08 92.3311 478.22 92.5227 478.396 92.6744C478.579 92.8181 478.791 92.9258 479.03 92.9977C479.278 93.0616 479.541 93.0935 479.821 93.0935C480.196 93.0935 480.539 93.0576 480.851 92.9857C481.162 92.9059 481.453 92.7941 481.725 92.6504C482.004 92.5067 482.268 92.3351 482.515 92.1355C482.771 91.9359 483.018 91.7083 483.258 91.4529V88.938ZM476.372 83.9802C477.043 83.3336 477.765 82.8506 478.539 82.5312C479.314 82.2119 480.172 82.0522 481.114 82.0522C481.793 82.0522 482.396 82.164 482.922 82.3875C483.449 82.6111 483.892 82.9224 484.252 83.3216C484.611 83.7208 484.882 84.2038 485.066 84.7706C485.25 85.3375 485.341 85.9602 485.341 86.6388V94.3988H484.395C484.188 94.3988 484.028 94.3669 483.916 94.303C483.805 94.2312 483.717 94.0954 483.653 93.8958L483.413 92.7462C483.094 93.0416 482.783 93.3051 482.479 93.5366C482.176 93.7601 481.857 93.9517 481.521 94.1114C481.186 94.2631 480.827 94.3789 480.444 94.4587C480.068 94.5465 479.649 94.5904 479.186 94.5904C478.715 94.5904 478.272 94.5265 477.857 94.3988C477.442 94.2631 477.078 94.0635 476.767 93.8C476.464 93.5366 476.22 93.2053 476.037 92.8061C475.861 92.3989 475.773 91.9199 475.773 91.369C475.773 90.89 475.905 90.431 476.168 89.9919C476.432 89.5448 476.859 89.1496 477.45 88.8063C478.041 88.463 478.811 88.1836 479.761 87.968C480.711 87.7445 481.877 87.6168 483.258 87.5848V86.6388C483.258 85.6967 483.054 84.9862 482.647 84.5072C482.24 84.0202 481.645 83.7767 480.863 83.7767C480.336 83.7767 479.893 83.8445 479.533 83.9802C479.182 84.108 478.875 84.2557 478.611 84.4233C478.356 84.583 478.132 84.7307 477.941 84.8664C477.757 84.9942 477.573 85.058 477.39 85.058C477.246 85.058 477.122 85.0221 477.019 84.9503C476.915 84.8704 476.827 84.7746 476.755 84.6628L476.372 83.9802Z" fill="#484D5F"/>
<path d="M13.9108 90.6191C14.0385 90.6191 14.1503 90.671 14.2461 90.7747L15.1682 91.7687C14.4657 92.583 13.6114 93.2177 12.6055 93.6728C11.6075 94.1278 10.398 94.3554 8.97695 94.3554C7.74748 94.3554 6.62978 94.1438 5.62385 93.7207C4.61792 93.2896 3.75969 92.6908 3.04915 91.9244C2.33861 91.15 1.78774 90.2239 1.39655 89.1461C1.00535 88.0683 0.809755 86.8828 0.809755 85.5894C0.809755 84.2961 1.01334 83.1105 1.4205 82.0327C1.82766 80.955 2.39849 80.0289 3.13297 79.2545C3.87545 78.48 4.76162 77.8813 5.7915 77.4581C6.82139 77.027 7.95904 76.8115 9.20448 76.8115C10.426 76.8115 11.5038 77.0071 12.4378 77.3983C13.3719 77.7895 14.1942 78.3204 14.9048 78.991L14.1383 80.0568C14.0904 80.1366 14.0266 80.2045 13.9467 80.2604C13.8749 80.3083 13.7751 80.3322 13.6473 80.3322C13.5036 80.3322 13.328 80.2564 13.1204 80.1047C12.9129 79.945 12.6414 79.7694 12.3061 79.5778C11.9708 79.3862 11.5517 79.2145 11.0487 79.0628C10.5457 78.9032 9.92699 78.8233 9.19251 78.8233C8.30633 78.8233 7.496 78.979 6.76151 79.2904C6.02702 79.5938 5.39233 80.0368 4.85743 80.6196C4.33051 81.2024 3.91936 81.913 3.62396 82.7513C3.32857 83.5895 3.18088 84.5356 3.18088 85.5894C3.18088 86.6592 3.33256 87.6133 3.63594 88.4515C3.9473 89.2898 4.36644 90.0003 4.89335 90.5831C5.42825 91.158 6.05496 91.5971 6.77348 91.9004C7.49999 92.2038 8.28238 92.3555 9.12065 92.3555C9.6316 92.3555 10.0907 92.3276 10.4978 92.2717C10.913 92.2078 11.2922 92.112 11.6355 91.9843C11.9868 91.8565 12.3101 91.6968 12.6055 91.5052C12.9089 91.3057 13.2082 91.0701 13.5036 90.7987C13.6394 90.6789 13.7751 90.6191 13.9108 90.6191ZM22.3583 81.8411C23.2445 81.8411 24.0428 81.9888 24.7534 82.2842C25.4639 82.5796 26.0707 82.9987 26.5736 83.5416C27.0766 84.0845 27.4598 84.7432 27.7232 85.5176C27.9947 86.284 28.1304 87.1422 28.1304 88.0923C28.1304 89.0503 27.9947 89.9125 27.7232 90.6789C27.4598 91.4454 27.0766 92.1 26.5736 92.6429C26.0707 93.1858 25.4639 93.6049 24.7534 93.9003C24.0428 94.1877 23.2445 94.3314 22.3583 94.3314C21.4641 94.3314 20.6578 94.1877 19.9393 93.9003C19.2287 93.6049 18.622 93.1858 18.119 92.6429C17.616 92.1 17.2288 91.4454 16.9574 90.6789C16.6939 89.9125 16.5622 89.0503 16.5622 88.0923C16.5622 87.1422 16.6939 86.284 16.9574 85.5176C17.2288 84.7432 17.616 84.0845 18.119 83.5416C18.622 82.9987 19.2287 82.5796 19.9393 82.2842C20.6578 81.9888 21.4641 81.8411 22.3583 81.8411ZM22.3583 92.6669C23.5558 92.6669 24.45 92.2677 25.0408 91.4693C25.6316 90.663 25.9269 89.5413 25.9269 88.1042C25.9269 86.6592 25.6316 85.5335 25.0408 84.7272C24.45 83.9208 23.5558 83.5177 22.3583 83.5177C21.7515 83.5177 21.2206 83.6215 20.7656 83.829C20.3185 84.0366 19.9433 84.336 19.6399 84.7272C19.3445 85.1184 19.121 85.6014 18.9693 86.1762C18.8256 86.743 18.7537 87.3857 18.7537 88.1042C18.7537 89.5413 19.0491 90.663 19.6399 91.4693C20.2387 92.2677 21.1448 92.6669 22.3583 92.6669ZM30.9538 94.1638V82.0327H32.2352C32.5385 82.0327 32.7261 82.1804 32.798 82.4758L32.9537 83.7213C33.4008 83.1704 33.9037 82.7193 34.4626 82.368C35.0214 82.0168 35.6681 81.8411 36.4026 81.8411C37.2169 81.8411 37.8755 82.0687 38.3785 82.5237C38.8895 82.9788 39.2567 83.5935 39.4802 84.3679C39.6559 83.9288 39.8794 83.5496 40.1509 83.2303C40.4303 82.9109 40.7416 82.6475 41.0849 82.4399C41.4282 82.2323 41.7915 82.0806 42.1747 81.9848C42.5659 81.889 42.9611 81.8411 43.3603 81.8411C43.9989 81.8411 44.5658 81.9449 45.0608 82.1525C45.5637 82.3521 45.9869 82.6475 46.3302 83.0387C46.6814 83.4299 46.9489 83.9129 47.1325 84.4877C47.3161 85.0545 47.4079 85.7052 47.4079 86.4397V94.1638H45.2643V86.4397C45.2643 85.4896 45.0568 84.7711 44.6416 84.2841C44.2265 83.7891 43.6277 83.5416 42.8453 83.5416C42.494 83.5416 42.1587 83.6055 41.8394 83.7332C41.528 83.853 41.2526 84.0326 41.0131 84.2721C40.7736 84.5116 40.582 84.815 40.4383 85.1823C40.3026 85.5415 40.2347 85.9607 40.2347 86.4397V94.1638H38.0911V86.4397C38.0911 85.4657 37.8955 84.7392 37.5043 84.2602C37.1131 83.7811 36.5423 83.5416 35.7918 83.5416C35.2649 83.5416 34.7779 83.6853 34.3308 83.9727C33.8838 84.2522 33.4726 84.6354 33.0974 85.1224V94.1638H30.9538ZM52.911 91.2418C53.3022 91.7687 53.7293 92.1399 54.1923 92.3555C54.6554 92.571 55.1743 92.6788 55.7491 92.6788C56.8828 92.6788 57.753 92.2757 58.3598 91.4693C58.9665 90.663 59.2699 89.5133 59.2699 88.0204C59.2699 87.23 59.198 86.5514 59.0543 85.9846C58.9186 85.4178 58.719 84.9547 58.4556 84.5955C58.1921 84.2282 57.8688 83.9608 57.4856 83.7931C57.1024 83.6255 56.6673 83.5416 56.1803 83.5416C55.4857 83.5416 54.8749 83.7013 54.348 84.0206C53.8291 84.34 53.3501 84.7911 52.911 85.3739V91.2418ZM52.8032 83.9129C53.3142 83.2822 53.9049 82.7752 54.5756 82.392C55.2462 82.0088 56.0126 81.8172 56.8748 81.8172C57.5774 81.8172 58.2121 81.9529 58.7789 82.2243C59.3457 82.4878 59.8287 82.883 60.2279 83.4099C60.6271 83.9288 60.9345 84.5755 61.15 85.3499C61.3656 86.1243 61.4734 87.0145 61.4734 88.0204C61.4734 88.9146 61.3536 89.7489 61.1141 90.5233C60.8746 91.2897 60.5273 91.9563 60.0722 92.5231C59.6252 93.082 59.0743 93.5251 58.4196 93.8524C57.773 94.1718 57.0425 94.3314 56.2282 94.3314C55.4857 94.3314 54.847 94.2077 54.3121 93.9602C53.7852 93.7047 53.3181 93.3534 52.911 92.9064V98.2713H50.7674V82.0327H52.0488C52.3521 82.0327 52.5397 82.1804 52.6116 82.4758L52.8032 83.9129ZM66.3365 84.4637C66.7197 83.6334 67.1907 82.9868 67.7496 82.5237C68.3084 82.0527 68.991 81.8172 69.7974 81.8172C70.0528 81.8172 70.2963 81.8451 70.5279 81.901C70.7674 81.9569 70.9789 82.0447 71.1625 82.1645L71.0069 83.7572C70.959 83.9568 70.8392 84.0566 70.6476 84.0566C70.5358 84.0566 70.3722 84.0326 70.1566 83.9847C69.9411 83.9368 69.6976 83.9129 69.4261 83.9129C69.0429 83.9129 68.6996 83.9688 68.3962 84.0805C68.1008 84.1923 67.8334 84.3599 67.5939 84.5835C67.3624 84.799 67.1508 85.0705 66.9592 85.3978C66.7756 85.7172 66.6079 86.0844 66.4562 86.4995V94.1638H64.3126V82.0327H65.5341C65.7657 82.0327 65.9253 82.0766 66.0131 82.1645C66.101 82.2523 66.1608 82.404 66.1928 82.6195L66.3365 84.4637ZM80.7847 86.775C80.7847 86.28 80.7129 85.8289 80.5692 85.4218C80.4335 85.0066 80.2299 84.6513 79.9584 84.356C79.695 84.0526 79.3717 83.8211 78.9884 83.6614C78.6052 83.4937 78.1701 83.4099 77.6831 83.4099C76.6612 83.4099 75.8509 83.7093 75.2521 84.3081C74.6613 84.8988 74.2941 85.7211 74.1504 86.775H80.7847ZM82.5092 92.4633C82.2457 92.7826 81.9304 93.062 81.5631 93.3015C81.1959 93.5331 80.8007 93.7247 80.3776 93.8764C79.9624 94.0281 79.5313 94.1398 79.0842 94.2117C78.6372 94.2915 78.1941 94.3314 77.755 94.3314C76.9167 94.3314 76.1423 94.1917 75.4318 93.9123C74.7292 93.6249 74.1185 93.2097 73.5995 92.6669C73.0886 92.116 72.6894 91.4374 72.402 90.631C72.1146 89.8247 71.9709 88.8986 71.9709 87.8528C71.9709 87.0065 72.0986 86.2161 72.3541 85.4816C72.6176 84.7471 72.9928 84.1125 73.4798 83.5776C73.9668 83.0347 74.5616 82.6115 75.2641 82.3082C75.9667 81.9968 76.757 81.8411 77.6352 81.8411C78.3617 81.8411 79.0324 81.9649 79.6471 82.2124C80.2698 82.4519 80.8047 82.8031 81.2518 83.2662C81.7068 83.7213 82.0621 84.2881 82.3176 84.9667C82.5731 85.6373 82.7008 86.4037 82.7008 87.266C82.7008 87.6013 82.6649 87.8248 82.593 87.9366C82.5212 88.0484 82.3855 88.1042 82.1859 88.1042H74.0785C74.1025 88.8707 74.2063 89.5373 74.3899 90.1041C74.5815 90.671 74.845 91.146 75.1803 91.5292C75.5156 91.9044 75.9148 92.1878 76.3778 92.3794C76.8409 92.5631 77.3598 92.6549 77.9346 92.6549C78.4695 92.6549 78.9286 92.595 79.3118 92.4752C79.703 92.3475 80.0383 92.2118 80.3177 92.0681C80.5971 91.9244 80.8287 91.7927 81.0123 91.6729C81.2039 91.5452 81.3675 91.4813 81.5033 91.4813C81.6789 91.4813 81.8146 91.5492 81.9104 91.6849L82.5092 92.4633ZM93.5582 86.775C93.5582 86.28 93.4863 85.8289 93.3426 85.4218C93.2069 85.0066 93.0033 84.6513 92.7319 84.356C92.4684 84.0526 92.1451 83.8211 91.7619 83.6614C91.3786 83.4937 90.9435 83.4099 90.4565 83.4099C89.4346 83.4099 88.6243 83.7093 88.0255 84.3081C87.4348 84.8988 87.0675 85.7211 86.9238 86.775H93.5582ZM95.2826 92.4633C95.0191 92.7826 94.7038 93.062 94.3366 93.3015C93.9693 93.5331 93.5741 93.7247 93.151 93.8764C92.7358 94.0281 92.3047 94.1398 91.8577 94.2117C91.4106 94.2915 90.9675 94.3314 90.5284 94.3314C89.6901 94.3314 88.9157 94.1917 88.2052 93.9123C87.5026 93.6249 86.8919 93.2097 86.3729 92.6669C85.862 92.116 85.4628 91.4374 85.1754 90.631C84.888 89.8247 84.7443 88.8986 84.7443 87.8528C84.7443 87.0065 84.872 86.2161 85.1275 85.4816C85.391 84.7471 85.7662 84.1125 86.2532 83.5776C86.7402 83.0347 87.335 82.6115 88.0375 82.3082C88.7401 81.9968 89.5304 81.8411 90.4086 81.8411C91.1351 81.8411 91.8058 81.9649 92.4205 82.2124C93.0432 82.4519 93.5781 82.8031 94.0252 83.2662C94.4803 83.7213 94.8355 84.2881 95.091 84.9667C95.3465 85.6373 95.4742 86.4037 95.4742 87.266C95.4742 87.6013 95.4383 87.8248 95.3664 87.9366C95.2946 88.0484 95.1589 88.1042 94.9593 88.1042H86.852C86.8759 88.8707 86.9797 89.5373 87.1633 90.1041C87.3549 90.671 87.6184 91.146 87.9537 91.5292C88.289 91.9044 88.6882 92.1878 89.1512 92.3794C89.6143 92.5631 90.1332 92.6549 90.708 92.6549C91.2429 92.6549 91.702 92.595 92.0852 92.4752C92.4764 92.3475 92.8117 92.2118 93.0911 92.0681C93.3705 91.9244 93.6021 91.7927 93.7857 91.6729C93.9773 91.5452 94.141 91.4813 94.2767 91.4813C94.4523 91.4813 94.588 91.5492 94.6838 91.6849L95.2826 92.4633ZM100.224 83.7931C100.488 83.4977 100.767 83.2303 101.062 82.9908C101.358 82.7513 101.669 82.5477 101.996 82.38C102.332 82.2044 102.683 82.0727 103.05 81.9848C103.426 81.889 103.829 81.8411 104.26 81.8411C104.922 81.8411 105.505 81.9529 106.008 82.1764C106.519 82.392 106.942 82.7034 107.278 83.1105C107.621 83.5097 107.88 83.9927 108.056 84.5595C108.232 85.1264 108.319 85.7531 108.319 86.4397V94.1638H106.176V86.4397C106.176 85.5216 105.964 84.811 105.541 84.3081C105.126 83.7971 104.491 83.5416 103.637 83.5416C103.006 83.5416 102.416 83.6933 101.865 83.9967C101.322 84.3001 100.819 84.7112 100.356 85.2302V94.1638H98.2123V82.0327H99.4936C99.797 82.0327 99.9846 82.1804 100.056 82.4758L100.224 83.7931ZM118.753 84.0326C118.657 84.2083 118.509 84.2961 118.31 84.2961C118.19 84.2961 118.054 84.2522 117.903 84.1643C117.751 84.0765 117.563 83.9807 117.34 83.8769C117.124 83.7652 116.865 83.6654 116.561 83.5776C116.258 83.4818 115.899 83.4339 115.484 83.4339C115.124 83.4339 114.801 83.4818 114.514 83.5776C114.226 83.6654 113.979 83.7891 113.771 83.9488C113.571 84.1085 113.416 84.2961 113.304 84.5116C113.2 84.7192 113.148 84.9467 113.148 85.1942C113.148 85.5056 113.236 85.7651 113.412 85.9726C113.595 86.1802 113.835 86.3598 114.13 86.5115C114.426 86.6632 114.761 86.7989 115.136 86.9187C115.511 87.0305 115.895 87.1542 116.286 87.2899C116.685 87.4177 117.072 87.5614 117.447 87.721C117.823 87.8807 118.158 88.0803 118.453 88.3198C118.749 88.5593 118.984 88.8547 119.16 89.206C119.344 89.5493 119.435 89.9644 119.435 90.4514C119.435 91.0103 119.336 91.5292 119.136 92.0082C118.936 92.4792 118.641 92.8904 118.25 93.2417C117.859 93.585 117.38 93.8564 116.813 94.056C116.246 94.2556 115.591 94.3554 114.849 94.3554C114.003 94.3554 113.236 94.2197 112.55 93.9482C111.863 93.6688 111.28 93.3135 110.801 92.8824L111.304 92.0681C111.368 91.9643 111.444 91.8845 111.532 91.8286C111.619 91.7727 111.731 91.7448 111.867 91.7448C112.011 91.7448 112.162 91.8006 112.322 91.9124C112.482 92.0242 112.673 92.1479 112.897 92.2836C113.128 92.4194 113.408 92.5431 113.735 92.6549C114.062 92.7666 114.47 92.8225 114.957 92.8225C115.372 92.8225 115.735 92.7706 116.046 92.6669C116.358 92.5551 116.617 92.4074 116.825 92.2238C117.032 92.0401 117.184 91.8286 117.28 91.5891C117.384 91.3496 117.436 91.0941 117.436 90.8226C117.436 90.4873 117.344 90.2119 117.16 89.9963C116.984 89.7728 116.749 89.5852 116.454 89.4335C116.158 89.2738 115.819 89.1381 115.436 89.0263C115.06 88.9066 114.673 88.7828 114.274 88.6551C113.883 88.5274 113.496 88.3837 113.112 88.224C112.737 88.0563 112.402 87.8488 112.106 87.6013C111.811 87.3538 111.572 87.0504 111.388 86.6911C111.212 86.3239 111.125 85.8808 111.125 85.3619C111.125 84.8988 111.22 84.4557 111.412 84.0326C111.604 83.6015 111.883 83.2263 112.25 82.9069C112.617 82.5796 113.069 82.3201 113.603 82.1285C114.138 81.9369 114.749 81.8411 115.436 81.8411C116.234 81.8411 116.949 81.9689 117.579 82.2243C118.218 82.4718 118.769 82.8151 119.232 83.2542L118.753 84.0326ZM128.743 88.703C127.761 88.7349 126.923 88.8148 126.228 88.9425C125.542 89.0623 124.979 89.2219 124.54 89.4215C124.109 89.6211 123.793 89.8566 123.594 90.1281C123.402 90.3995 123.306 90.7029 123.306 91.0382C123.306 91.3575 123.358 91.633 123.462 91.8645C123.566 92.096 123.705 92.2876 123.881 92.4393C124.065 92.583 124.276 92.6908 124.516 92.7627C124.763 92.8265 125.027 92.8585 125.306 92.8585C125.681 92.8585 126.025 92.8225 126.336 92.7507C126.647 92.6708 126.939 92.5591 127.21 92.4154C127.49 92.2717 127.753 92.1 128.001 91.9004C128.256 91.7008 128.504 91.4733 128.743 91.2178V88.703ZM121.857 83.7452C122.528 83.0985 123.25 82.6155 124.025 82.2962C124.799 81.9768 125.657 81.8172 126.599 81.8172C127.278 81.8172 127.881 81.9289 128.408 82.1525C128.935 82.376 129.378 82.6874 129.737 83.0866C130.096 83.4857 130.368 83.9688 130.551 84.5356C130.735 85.1024 130.827 85.7251 130.827 86.4037V94.1638H129.881C129.673 94.1638 129.513 94.1318 129.402 94.068C129.29 93.9961 129.202 93.8604 129.138 93.6608L128.899 92.5112C128.579 92.8066 128.268 93.07 127.965 93.3015C127.661 93.5251 127.342 93.7167 127.007 93.8764C126.671 94.0281 126.312 94.1438 125.929 94.2236C125.554 94.3115 125.134 94.3554 124.671 94.3554C124.2 94.3554 123.757 94.2915 123.342 94.1638C122.927 94.0281 122.564 93.8285 122.252 93.565C121.949 93.3015 121.706 92.9702 121.522 92.571C121.346 92.1639 121.258 91.6849 121.258 91.134C121.258 90.655 121.39 90.1959 121.654 89.7568C121.917 89.3098 122.344 88.9146 122.935 88.5713C123.526 88.228 124.296 87.9486 125.246 87.733C126.196 87.5095 127.362 87.3817 128.743 87.3498V86.4037C128.743 85.4617 128.539 84.7511 128.132 84.2721C127.725 83.7851 127.13 83.5416 126.348 83.5416C125.821 83.5416 125.378 83.6095 125.019 83.7452C124.667 83.8729 124.36 84.0206 124.097 84.1883C123.841 84.348 123.618 84.4957 123.426 84.6314C123.242 84.7591 123.059 84.823 122.875 84.823C122.731 84.823 122.608 84.7871 122.504 84.7152C122.4 84.6354 122.312 84.5396 122.24 84.4278L121.857 83.7452ZM127.653 78.2964C127.941 78.2964 128.16 78.2126 128.312 78.0449C128.472 77.8773 128.555 77.6178 128.563 77.2665H129.857C129.857 77.6418 129.805 77.9891 129.701 78.3084C129.605 78.6198 129.462 78.8872 129.27 79.1107C129.086 79.3343 128.863 79.5099 128.599 79.6377C128.344 79.7574 128.056 79.8173 127.737 79.8173C127.458 79.8173 127.194 79.7614 126.947 79.6496C126.707 79.5299 126.48 79.4021 126.264 79.2664C126.049 79.1307 125.845 79.007 125.653 78.8952C125.462 78.7754 125.274 78.7156 125.091 78.7156C124.516 78.7156 124.22 79.0668 124.204 79.7694H122.875C122.875 79.3862 122.927 79.0389 123.031 78.7275C123.135 78.4082 123.282 78.1368 123.474 77.9132C123.666 77.6817 123.893 77.506 124.156 77.3863C124.42 77.2586 124.707 77.1947 125.019 77.1947C125.298 77.1947 125.558 77.2546 125.797 77.3743C126.045 77.4861 126.276 77.6098 126.492 77.7456C126.707 77.8813 126.907 78.009 127.09 78.1288C127.282 78.2405 127.47 78.2964 127.653 78.2964ZM139.307 81.8411C140.193 81.8411 140.992 81.9888 141.702 82.2842C142.413 82.5796 143.019 82.9987 143.522 83.5416C144.025 84.0845 144.409 84.7432 144.672 85.5176C144.943 86.284 145.079 87.1422 145.079 88.0923C145.079 89.0503 144.943 89.9125 144.672 90.6789C144.409 91.4454 144.025 92.1 143.522 92.6429C143.019 93.1858 142.413 93.6049 141.702 93.9003C140.992 94.1877 140.193 94.3314 139.307 94.3314C138.413 94.3314 137.607 94.1877 136.888 93.9003C136.177 93.6049 135.571 93.1858 135.068 92.6429C134.565 92.1 134.178 91.4454 133.906 90.6789C133.643 89.9125 133.511 89.0503 133.511 88.0923C133.511 87.1422 133.643 86.284 133.906 85.5176C134.178 84.7432 134.565 84.0845 135.068 83.5416C135.571 82.9987 136.177 82.5796 136.888 82.2842C137.607 81.9888 138.413 81.8411 139.307 81.8411ZM139.307 92.6669C140.505 92.6669 141.399 92.2677 141.989 91.4693C142.58 90.663 142.876 89.5413 142.876 88.1042C142.876 86.6592 142.58 85.5335 141.989 84.7272C141.399 83.9208 140.505 83.5177 139.307 83.5177C138.7 83.5177 138.169 83.6215 137.714 83.829C137.267 84.0366 136.892 84.336 136.589 84.7272C136.293 85.1184 136.07 85.6014 135.918 86.1762C135.774 86.743 135.702 87.3857 135.702 88.1042C135.702 89.5413 135.998 90.663 136.589 91.4693C137.187 92.2677 138.094 92.6669 139.307 92.6669Z" fill="#484D5F"/>
<path d="M377.466 188.229C368.372 203.981 355.29 217.062 339.536 226.155C323.783 235.248 305.913 240.033 287.723 240.03C269.534 240.026 251.666 235.233 235.916 226.133C220.166 217.034 207.09 203.948 198.002 188.191L287.745 136.428L377.466 188.229Z" fill="#5AD3A0"/>
<path d="M171.136 203.186C159.258 182.613 153.006 159.276 153.009 135.521C153.011 111.765 159.268 88.4295 171.15 67.8593C183.032 47.2891 200.12 30.2098 220.696 18.3386C241.273 6.46744 264.612 0.222891 288.367 0.232844L288.311 135.535L171.136 203.186Z" fill="#047453"/>
<path d="M288.292 20.4191C308.604 20.4191 328.557 25.7667 346.146 35.9241C363.735 46.0816 378.339 60.6908 388.491 78.2829C398.643 95.875 403.984 115.83 403.978 136.141C403.972 156.452 398.618 176.404 388.455 193.99L288.292 136.105L288.292 20.4191Z" fill="#00A79D"/>
</svg>
