<svg width="94" height="65" viewBox="0 0 94 65" fill="none" xmlns="http://www.w3.org/2000/svg">
<g opacity="0.5" filter="url(#filter0_d_837_516)">
<path d="M82.7126 56.5118C85.3346 57.4231 88.2277 56.0293 88.8146 53.3162C89.894 48.3272 90.0912 43.171 89.3834 38.0877C88.4434 31.3367 85.9338 24.906 82.0597 19.3215C78.1856 13.737 73.057 9.15727 67.0933 5.95669C61.1297 2.75611 54.5002 1.02558 47.7469 0.906604C40.9937 0.787624 34.3084 2.28357 28.2377 5.27212C22.167 8.26068 16.8832 12.657 12.8183 18.1016C8.75352 23.5462 6.02305 29.8846 4.85018 36.5984C3.96681 41.6551 3.9859 46.8166 4.89285 51.842C5.38558 54.5722 8.22647 56.0651 10.8774 55.247C13.5089 54.4349 14.9496 51.649 14.5519 48.9238C14.0414 45.425 14.088 41.8554 14.7001 38.3515C15.5989 33.2066 17.6913 28.3494 20.8062 24.1772C23.9212 20.0049 27.9702 16.636 32.6222 14.3458C37.2743 12.0556 42.3973 10.9093 47.5724 11.0005C52.7474 11.0916 57.8277 12.4178 62.3977 14.8704C66.9677 17.323 70.8978 20.8325 73.8666 25.112C76.8353 29.3915 78.7585 34.3193 79.4788 39.4928C79.9695 43.0164 79.8926 46.5858 79.2613 50.0648C78.7696 52.774 80.1117 55.6079 82.7126 56.5118Z" fill="white"/>
</g>
<mask id="path-2-inside-1_837_516" fill="white">
<path d="M34.0821 8.27695C33.1335 5.64627 30.2073 4.26425 27.7155 5.53363C24.2228 7.31292 20.981 9.5709 18.0847 12.2496C13.9408 16.0823 10.5853 20.7013 8.20998 25.8429C5.83462 30.9845 4.48585 36.548 4.24069 42.2157C4.0683 46.201 4.44394 50.183 5.35049 54.0493C5.98435 56.7526 8.90225 58.0961 11.5086 57.1386C14.0929 56.1891 15.3852 53.3327 14.8468 50.6326C14.3247 48.0145 14.1171 45.3363 14.2331 42.656C14.421 38.3128 15.4545 34.0495 17.2748 30.1094C19.0951 26.1694 21.6664 22.6298 24.8419 19.6927C26.7842 17.8963 28.9293 16.3468 31.2286 15.074C33.6546 13.7311 35.0228 10.8855 34.0821 8.27695Z"/>
</mask>
<path d="M34.0821 8.27695C33.1335 5.64627 30.2073 4.26425 27.7155 5.53363C24.2228 7.31292 20.981 9.5709 18.0847 12.2496C13.9408 16.0823 10.5853 20.7013 8.20998 25.8429C5.83462 30.9845 4.48585 36.548 4.24069 42.2157C4.0683 46.201 4.44394 50.183 5.35049 54.0493C5.98435 56.7526 8.90225 58.0961 11.5086 57.1386C14.0929 56.1891 15.3852 53.3327 14.8468 50.6326C14.3247 48.0145 14.1171 45.3363 14.2331 42.656C14.421 38.3128 15.4545 34.0495 17.2748 30.1094C19.0951 26.1694 21.6664 22.6298 24.8419 19.6927C26.7842 17.8963 28.9293 16.3468 31.2286 15.074C33.6546 13.7311 35.0228 10.8855 34.0821 8.27695Z" fill="url(#paint0_linear_837_516)" stroke="#F2F2F2" stroke-width="3.2" mask="url(#path-2-inside-1_837_516)"/>
<path d="M38.1144 44.4921C38.3704 44.4921 38.572 44.5657 38.7192 44.7129C38.8728 44.8537 38.9496 45.0425 38.9496 45.2793V46.7001H29.4264V45.9129C29.4264 45.7529 29.4584 45.5865 29.5224 45.4137C29.5928 45.2345 29.7016 45.0745 29.8488 44.9337L34.0632 40.7097C34.4152 40.3513 34.7288 40.0089 35.004 39.6825C35.2856 39.3561 35.5192 39.0329 35.7048 38.7129C35.8904 38.3929 36.0312 38.0697 36.1272 37.7433C36.2296 37.4105 36.2808 37.0617 36.2808 36.6969C36.2808 36.3641 36.2328 36.0729 36.1368 35.8233C36.0408 35.5673 35.9032 35.3529 35.724 35.1801C35.5512 35.0073 35.34 34.8793 35.0904 34.7961C34.8472 34.7065 34.572 34.6617 34.2648 34.6617C33.9832 34.6617 33.7208 34.7033 33.4776 34.7865C33.2408 34.8633 33.0296 34.9753 32.844 35.1225C32.6584 35.2633 32.5016 35.4297 32.3736 35.6217C32.2456 35.8137 32.1496 36.0249 32.0856 36.2553C31.9768 36.5497 31.836 36.7449 31.6632 36.8409C31.4904 36.9369 31.2408 36.9593 30.9144 36.9081L29.6664 36.6873C29.7624 36.0217 29.948 35.4393 30.2232 34.9401C30.4984 34.4345 30.8408 34.0153 31.2504 33.6825C31.6664 33.3433 32.14 33.0905 32.6712 32.9241C33.2088 32.7513 33.7848 32.6649 34.3992 32.6649C35.0392 32.6649 35.6248 32.7609 36.156 32.9529C36.6872 33.1385 37.1416 33.4041 37.5192 33.7497C37.8968 34.0953 38.1912 34.5113 38.4024 34.9977C38.6136 35.4841 38.7192 36.0249 38.7192 36.6201C38.7192 37.1321 38.6424 37.6057 38.4888 38.0409C38.3416 38.4761 38.14 38.8921 37.884 39.2889C37.6344 39.6857 37.34 40.0697 37.0008 40.4409C36.6616 40.8121 36.3064 41.1897 35.9352 41.5737L32.8056 44.7705C33.1064 44.6809 33.404 44.6137 33.6984 44.5689C33.9992 44.5177 34.284 44.4921 34.5528 44.4921H38.1144ZM43.7319 37.8585C44.0391 37.7945 44.3335 37.7497 44.6151 37.7241C44.8967 37.6921 45.1687 37.6761 45.4311 37.6761C46.1607 37.6761 46.8039 37.7849 47.3607 38.0025C47.9175 38.2201 48.3847 38.5209 48.7623 38.9049C49.1399 39.2889 49.4247 39.7401 49.6167 40.2585C49.8087 40.7705 49.9047 41.3241 49.9047 41.9193C49.9047 42.6553 49.7735 43.3273 49.5111 43.9353C49.2551 44.5433 48.8967 45.0649 48.4359 45.5001C47.9751 45.9289 47.4279 46.2617 46.7943 46.4985C46.1671 46.7353 45.4823 46.8537 44.7399 46.8537C44.3047 46.8537 43.8919 46.8089 43.5015 46.7193C43.1111 46.6297 42.7431 46.5113 42.3975 46.3641C42.0583 46.2105 41.7415 46.0377 41.4471 45.8457C41.1591 45.6473 40.8999 45.4393 40.6695 45.2217L41.3991 44.2137C41.5527 43.9961 41.7543 43.8873 42.0039 43.8873C42.1639 43.8873 42.3271 43.9385 42.4935 44.0409C42.6599 44.1433 42.8487 44.2553 43.0599 44.3769C43.2775 44.4985 43.5303 44.6105 43.8183 44.7129C44.1127 44.8153 44.4647 44.8665 44.8743 44.8665C45.3095 44.8665 45.6935 44.7961 46.0263 44.6553C46.3591 44.5145 46.6343 44.3193 46.8519 44.0697C47.0759 43.8137 47.2423 43.5129 47.3511 43.1673C47.4663 42.8153 47.5239 42.4345 47.5239 42.0249C47.5239 41.2697 47.3031 40.6809 46.8615 40.2585C46.4263 39.8297 45.7799 39.6153 44.9223 39.6153C44.2631 39.6153 43.5879 39.7369 42.8967 39.9801L41.4183 39.5577L42.5703 32.8185H49.4247V33.8265C49.4247 34.1657 49.3191 34.4409 49.1079 34.6521C48.8967 34.8633 48.5383 34.9689 48.0327 34.9689H44.2215L43.7319 37.8585ZM58.1238 36.1785C58.1238 36.7033 58.0342 37.1769 57.855 37.5993C57.6822 38.0217 57.4486 38.3833 57.1542 38.6841C56.8598 38.9785 56.5174 39.2057 56.127 39.3657C55.7366 39.5257 55.3302 39.6057 54.9078 39.6057C54.447 39.6057 54.0214 39.5257 53.631 39.3657C53.2406 39.2057 52.9014 38.9785 52.6134 38.6841C52.3318 38.3833 52.111 38.0217 51.951 37.5993C51.791 37.1769 51.711 36.7033 51.711 36.1785C51.711 35.6409 51.791 35.1545 51.951 34.7193C52.111 34.2841 52.3318 33.9161 52.6134 33.6153C52.9014 33.3145 53.2406 33.0841 53.631 32.9241C54.0214 32.7577 54.447 32.6745 54.9078 32.6745C55.3686 32.6745 55.7942 32.7577 56.1846 32.9241C56.5814 33.0841 56.9238 33.3145 57.2118 33.6153C57.4998 33.9161 57.7238 34.2841 57.8838 34.7193C58.0438 35.1545 58.1238 35.6409 58.1238 36.1785ZM56.2998 36.1785C56.2998 35.8073 56.2614 35.4969 56.1846 35.2473C56.1142 34.9977 56.015 34.7961 55.887 34.6425C55.7654 34.4889 55.6182 34.3801 55.4454 34.3161C55.279 34.2457 55.0998 34.2105 54.9078 34.2105C54.7158 34.2105 54.5366 34.2457 54.3702 34.3161C54.2038 34.3801 54.0598 34.4889 53.9382 34.6425C53.823 34.7961 53.7302 34.9977 53.6598 35.2473C53.5894 35.4969 53.5542 35.8073 53.5542 36.1785C53.5542 36.5369 53.5894 36.8377 53.6598 37.0809C53.7302 37.3177 53.823 37.5097 53.9382 37.6569C54.0598 37.8041 54.2038 37.9097 54.3702 37.9737C54.5366 38.0377 54.7158 38.0697 54.9078 38.0697C55.0998 38.0697 55.279 38.0377 55.4454 37.9737C55.6182 37.9097 55.7654 37.8041 55.887 37.6569C56.015 37.5097 56.1142 37.3177 56.1846 37.0809C56.2614 36.8377 56.2998 36.5369 56.2998 36.1785ZM62.7414 33.1929C62.8246 33.0969 62.9206 33.0105 63.0294 32.9337C63.1446 32.8569 63.3046 32.8185 63.5094 32.8185H65.2374L54.927 46.3449C54.8438 46.4473 54.7446 46.5337 54.6294 46.6041C54.5142 46.6681 54.3734 46.7001 54.207 46.7001H52.4406L62.7414 33.1929ZM65.967 43.4361C65.967 43.9609 65.8774 44.4345 65.6982 44.8569C65.5254 45.2793 65.2918 45.6409 64.9974 45.9417C64.703 46.2361 64.3606 46.4665 63.9702 46.6329C63.5798 46.7929 63.1734 46.8729 62.751 46.8729C62.2902 46.8729 61.8646 46.7929 61.4742 46.6329C61.0838 46.4665 60.7446 46.2361 60.4566 45.9417C60.175 45.6409 59.9542 45.2793 59.7942 44.8569C59.6342 44.4345 59.5542 43.9609 59.5542 43.4361C59.5542 42.8985 59.6342 42.4121 59.7942 41.9769C59.9542 41.5417 60.175 41.1737 60.4566 40.8729C60.7446 40.5721 61.0838 40.3417 61.4742 40.1817C61.8646 40.0153 62.2902 39.9321 62.751 39.9321C63.2118 39.9321 63.6374 40.0153 64.0278 40.1817C64.4246 40.3417 64.7638 40.5721 65.0454 40.8729C65.3334 41.1737 65.5574 41.5417 65.7174 41.9769C65.8838 42.4121 65.967 42.8985 65.967 43.4361ZM64.1334 43.4361C64.1334 43.0649 64.0982 42.7545 64.0278 42.5049C63.9574 42.2553 63.8582 42.0537 63.7302 41.9001C63.6086 41.7465 63.4614 41.6377 63.2886 41.5737C63.1222 41.5033 62.943 41.4681 62.751 41.4681C62.559 41.4681 62.3798 41.5033 62.2134 41.5737C62.047 41.6377 61.903 41.7465 61.7814 41.9001C61.6598 42.0537 61.5638 42.2553 61.4934 42.5049C61.4294 42.7545 61.3974 43.0649 61.3974 43.4361C61.3974 43.7945 61.4294 44.0953 61.4934 44.3385C61.5638 44.5817 61.6598 44.7769 61.7814 44.9241C61.903 45.0713 62.047 45.1769 62.2134 45.2409C62.3798 45.3049 62.559 45.3369 62.751 45.3369C62.943 45.3369 63.1222 45.3049 63.2886 45.2409C63.4614 45.1769 63.6086 45.0713 63.7302 44.9241C63.8582 44.7769 63.9574 44.5817 64.0278 44.3385C64.0982 44.0953 64.1334 43.7945 64.1334 43.4361Z" fill="white"/>
<defs>
<filter id="filter0_d_837_516" x="0.224951" y="0.900024" width="93.55" height="63.8401" filterUnits="userSpaceOnUse" color-interpolation-filters="sRGB">
<feFlood flood-opacity="0" result="BackgroundImageFix"/>
<feColorMatrix in="SourceAlpha" type="matrix" values="0 0 0 0 0 0 0 0 0 0 0 0 0 0 0 0 0 0 127 0" result="hardAlpha"/>
<feOffset dy="3.975"/>
<feGaussianBlur stdDeviation="1.9875"/>
<feComposite in2="hardAlpha" operator="out"/>
<feColorMatrix type="matrix" values="0 0 0 0 0 0 0 0 0 0 0 0 0 0 0 0 0 0 0.25 0"/>
<feBlend mode="normal" in2="BackgroundImageFix" result="effect1_dropShadow_837_516"/>
<feBlend mode="normal" in="SourceGraphic" in2="effect1_dropShadow_837_516" result="shape"/>
</filter>
<linearGradient id="paint0_linear_837_516" x1="41.6499" y1="22.5" x2="15.3199" y2="49.2552" gradientUnits="userSpaceOnUse">
<stop stop-color="#FA8B09"/>
<stop offset="1" stop-color="#FFC700"/>
</linearGradient>
</defs>
</svg>
