<svg width="20" height="22" viewBox="0 0 20 22" fill="none" xmlns="http://www.w3.org/2000/svg">
<path fill-rule="evenodd" clip-rule="evenodd" d="M9.17112 16.2979V16.2979C9.61704 16.7337 10.3396 16.7337 10.7855 16.2979L15.3993 11.7891C15.8452 11.3533 15.8452 10.6467 15.3993 10.2112L10.7868 5.70246C10.3409 5.26661 9.61802 5.26661 9.17243 5.70246H9.1721C8.72651 6.13832 8.72651 6.84487 9.1721 7.28041L11.8362 9.88438H1.14138C0.511156 9.88438 0 10.3837 0 11V11.0003C0 11.6166 0.511156 12.1163 1.14138 12.1163H11.8362L9.17112 14.7199C8.72521 15.1554 8.72521 15.862 9.17112 16.2979M15.108 0H8.25581C5.55421 0 3.36378 2.14101 3.36378 4.78165V5.73881C3.36378 6.35449 3.87461 6.8538 4.5045 6.8538H4.50646C5.13635 6.8538 5.64718 6.35449 5.64718 5.73881V4.78165C5.64718 3.37365 6.81498 2.23188 8.25581 2.23188H15.108C16.5488 2.23188 17.7166 3.37365 17.7166 4.78165V17.2183C17.7166 18.6267 16.5488 19.7681 15.108 19.7681H8.25581C6.81498 19.7681 5.64718 18.6267 5.64718 17.2183V16.2612C5.64718 15.6455 5.13635 15.1462 4.50646 15.1462H4.5045C3.87461 15.1462 3.36378 15.6455 3.36378 16.2612V17.2183C3.36378 19.859 5.55421 22 8.25581 22H15.108C17.8096 22 20 19.859 20 17.2183V4.78165C20 2.14101 17.8096 0 15.108 0" fill="white"/>
</svg>
