<svg width="15" height="18" viewBox="0 0 15 18" fill="none" xmlns="http://www.w3.org/2000/svg">
<path fill-rule="evenodd" clip-rule="evenodd" d="M1.09475 17.9973C0.756361 17.9678 0.498302 17.7017 0.500008 17.3838V1.4316C0.500008 0.649499 1.19471 0 2.03126 0H12.9687C13.8053 0 14.5 0.649499 14.5 1.4316V17.3838C14.5009 17.6131 14.365 17.8232 14.1479 17.9294C13.9309 18.0357 13.6686 18.0197 13.4678 17.8887L7.50005 14.0413L1.53233 17.8887C1.40501 17.9726 1.24949 18.0109 1.09483 17.9973L1.09475 17.9973ZM1.81251 16.2142L7.12397 12.7886C7.34955 12.6408 7.65033 12.6408 7.87592 12.7886L13.1874 16.2142V1.43165C13.1874 1.30782 13.1011 1.22713 12.9686 1.22713H2.03115C1.8987 1.22713 1.8124 1.30782 1.8124 1.43165L1.81251 16.2142Z" fill="#1B2B3A" fill-opacity="0.3"/>
</svg>
