<svg width="28" height="20" viewBox="0 0 28 20" fill="none" xmlns="http://www.w3.org/2000/svg">
<path fill-rule="evenodd" clip-rule="evenodd" d="M9.00075 10C11.7606 10 14 7.76154 14 5C14 2.23846 11.7606 0 9.00075 0C6.23939 0 4 2.23846 4 5C4 7.76154 6.23939 10 9.00075 10ZM13 10.7C10.7323 12.5338 9.28129 15.3277 9.28129 18.4615C9.28129 18.9862 9.33389 19.4969 9.41278 20H1.00547C0.45169 20 0 19.5508 0 19C0 14.0492 4.07139 10 9.04926 10H9.51333C10.7477 10 11.9249 10.2508 13 10.7ZM24.5 5C24.5 7.76154 22.2606 10 19.5007 10C16.7394 10 14.5 7.76154 14.5 5C14.5 2.23846 16.7394 0 19.5007 0C22.2606 0 24.5 2.23846 24.5 5ZM19.5007 10H19.7125C24.2713 10 28 14.0492 28 19C28 19.5508 27.5849 20 27.0792 20H11.9208C11.4137 20 11 19.5508 11 19C11 14.0492 14.7287 10 19.2875 10H19.5007Z" fill="white"/>
</svg>
