<svg width="24" height="24" viewBox="0 0 24 24" fill="none" xmlns="http://www.w3.org/2000/svg">
<path fill-rule="evenodd" clip-rule="evenodd" d="M10.7374 0.090328C5.33723 0.735984 1.1946 4.61457 0.212949 9.72454C-1.0145 16.2196 3.18926 22.5592 9.60353 23.883C9.94157 23.9443 13.408 24.2834 16.0163 23.4213C20.4345 21.6972 23.1352 18.528 23.9337 13.7871C23.9648 13.6945 24.3628 9.81718 22.7674 6.67647C20.6493 2.33721 15.9851 -0.556652 10.7374 0.090328H10.7374ZM11.8114 19.3886C10.8297 19.3886 10.0925 18.6504 10.0925 17.6957C10.0925 16.6497 10.7985 15.9103 11.8114 15.9103C12.8243 15.879 13.5914 16.6485 13.5914 17.6645C13.5914 18.6504 12.8555 19.3886 11.8114 19.3886ZM15.6171 11.3546C15.188 11.7237 14.7576 12.0628 14.2974 12.3706C13.6225 12.8323 13.2233 13.5404 13.2233 14.4638H10.4616C10.3393 13.4791 10.4004 12.3706 11.2899 11.6624C11.8113 11.262 12.3639 10.9242 12.793 10.4925C13.1922 10.0621 13.5913 9.53789 13.7747 9.01489C13.9893 8.338 13.4678 7.53724 12.8853 7.32203C12.0258 7.01424 10.983 7.26072 10.615 7.96889C10.4004 8.36927 10.277 8.861 10.0936 9.35396H7.51644C7.24075 7.96889 8.00791 6.27603 9.29649 5.4453C11.0765 4.33676 14.1139 4.58324 15.6795 5.99957C17.2438 7.38464 17.2126 9.96948 15.6172 11.3545L15.6171 11.3546Z" fill="white"/>
</svg>
