<svg width="106" height="122" viewBox="0 0 106 122" fill="none" xmlns="http://www.w3.org/2000/svg">
<path d="M24.15 55.975C24.95 55.8083 25.7167 55.6917 26.45 55.625C27.1833 55.5417 27.8917 55.5 28.575 55.5C30.475 55.5 32.15 55.7833 33.6 56.35C35.05 56.9167 36.2667 57.7 37.25 58.7C38.2333 59.7 38.975 60.875 39.475 62.225C39.975 63.5583 40.225 65 40.225 66.55C40.225 68.4667 39.8833 70.2167 39.2 71.8C38.5333 73.3833 37.6 74.7417 36.4 75.875C35.2 76.9917 33.775 77.8583 32.125 78.475C30.4917 79.0917 28.7083 79.4 26.775 79.4C25.6417 79.4 24.5667 79.2833 23.55 79.05C22.5333 78.8167 21.575 78.5083 20.675 78.125C19.7917 77.725 18.9667 77.275 18.2 76.775C17.45 76.2583 16.775 75.7167 16.175 75.15L18.075 72.525C18.475 71.9583 19 71.675 19.65 71.675C20.0667 71.675 20.4917 71.8083 20.925 72.075C21.3583 72.3417 21.85 72.6333 22.4 72.95C22.9667 73.2667 23.625 73.5583 24.375 73.825C25.1417 74.0917 26.0583 74.225 27.125 74.225C28.2583 74.225 29.2583 74.0417 30.125 73.675C30.9917 73.3083 31.7083 72.8 32.275 72.15C32.8583 71.4833 33.2917 70.7 33.575 69.8C33.875 68.8833 34.025 67.8917 34.025 66.825C34.025 64.8583 33.45 63.325 32.3 62.225C31.1667 61.1083 29.4833 60.55 27.25 60.55C25.5333 60.55 23.775 60.8667 21.975 61.5L18.125 60.4L21.125 42.85H38.975V45.475C38.975 46.3583 38.7 47.075 38.15 47.625C37.6 48.175 36.6667 48.45 35.35 48.45H25.425L24.15 55.975ZM45.1539 75.6C45.1539 75.0833 45.2456 74.5917 45.4289 74.125C45.6289 73.6583 45.8956 73.2583 46.2289 72.925C46.5622 72.5917 46.9622 72.325 47.4289 72.125C47.8956 71.925 48.3956 71.825 48.9289 71.825C49.4622 71.825 49.9539 71.925 50.4039 72.125C50.8706 72.325 51.2706 72.5917 51.6039 72.925C51.9539 73.2583 52.2289 73.6583 52.4289 74.125C52.6289 74.5917 52.7289 75.0833 52.7289 75.6C52.7289 76.1333 52.6289 76.6333 52.4289 77.1C52.2289 77.55 51.9539 77.9417 51.6039 78.275C51.2706 78.6083 50.8706 78.8667 50.4039 79.05C49.9539 79.25 49.4622 79.35 48.9289 79.35C48.3956 79.35 47.8956 79.25 47.4289 79.05C46.9622 78.8667 46.5622 78.6083 46.2289 78.275C45.8956 77.9417 45.6289 77.55 45.4289 77.1C45.2456 76.6333 45.1539 76.1333 45.1539 75.6ZM65.0191 55.975C65.8191 55.8083 66.5858 55.6917 67.3191 55.625C68.0525 55.5417 68.7608 55.5 69.4441 55.5C71.3441 55.5 73.0191 55.7833 74.4691 56.35C75.9191 56.9167 77.1358 57.7 78.1191 58.7C79.1025 59.7 79.8441 60.875 80.3441 62.225C80.8441 63.5583 81.0941 65 81.0941 66.55C81.0941 68.4667 80.7525 70.2167 80.0691 71.8C79.4025 73.3833 78.4691 74.7417 77.2691 75.875C76.0691 76.9917 74.6441 77.8583 72.9941 78.475C71.3608 79.0917 69.5775 79.4 67.6441 79.4C66.5108 79.4 65.4358 79.2833 64.4191 79.05C63.4025 78.8167 62.4441 78.5083 61.5441 78.125C60.6608 77.725 59.8358 77.275 59.0691 76.775C58.3191 76.2583 57.6441 75.7167 57.0441 75.15L58.9441 72.525C59.3441 71.9583 59.8691 71.675 60.5191 71.675C60.9358 71.675 61.3608 71.8083 61.7941 72.075C62.2275 72.3417 62.7191 72.6333 63.2691 72.95C63.8358 73.2667 64.4941 73.5583 65.2441 73.825C66.0108 74.0917 66.9275 74.225 67.9941 74.225C69.1275 74.225 70.1275 74.0417 70.9941 73.675C71.8608 73.3083 72.5775 72.8 73.1441 72.15C73.7275 71.4833 74.1608 70.7 74.4441 69.8C74.7441 68.8833 74.8941 67.8917 74.8941 66.825C74.8941 64.8583 74.3191 63.325 73.1691 62.225C72.0358 61.1083 70.3525 60.55 68.1191 60.55C66.4025 60.55 64.6441 60.8667 62.8441 61.5L58.9941 60.4L61.9941 42.85H79.8441V45.475C79.8441 46.3583 79.5691 47.075 79.0191 47.625C78.4691 48.175 77.5358 48.45 76.2191 48.45H66.2941L65.0191 55.975Z" fill="#00A79D"/>
<path d="M0.314942 100.054C6.85284 107.721 15.2402 113.592 24.6822 117.109C34.1242 120.627 44.3081 121.675 54.2687 120.155C64.2293 118.635 73.6367 114.596 81.5994 108.422C89.5621 102.248 95.8164 94.1425 99.7694 84.8743C103.722 75.6061 105.243 65.4821 104.188 55.4615C103.133 45.441 99.536 35.8559 93.7389 27.6146C87.9418 19.3733 80.1362 12.7488 71.062 8.36896C61.9877 3.98909 51.9454 1.9989 41.8866 2.587" stroke="#00A79D" stroke-width="0.777226"/>
</svg>
