<svg width="24" height="24" viewBox="0 0 24 24" fill="none" xmlns="http://www.w3.org/2000/svg">
<path fill-rule="evenodd" clip-rule="evenodd" d="M11.0472 1.31245C12.081 1.31245 12.9854 2.23042 12.9854 3.28038H9.1075C9.1075 2.23042 10.0134 1.31245 11.0472 1.31245ZM19.3207 7.73821L19.1913 7.21473C18.5457 4.98431 16.4766 3.54137 14.2796 3.28038C14.2796 1.44295 12.856 0 11.0472 0C9.23691 0 7.81485 1.44295 7.81485 3.28038C5.61779 3.54137 3.67809 4.98431 2.90162 7.21473L2.77368 7.73821C2.64426 8.0007 2.64426 8.26319 2.64426 8.52568C2.64426 9.96863 3.8075 11.1476 5.22956 11.1476H9.75456V9.57414C9.75456 9.04916 10.2722 8.52568 11.0472 8.52568C11.8222 8.52568 12.3399 9.04916 12.3399 9.57414V11.1476H16.8649C17.1237 11.1476 17.3825 11.1476 17.6399 11.0171C19.0619 10.6241 19.8384 9.04916 19.3207 7.73821ZM15.0506 18.819H15.6846C16.0659 18.819 16.3187 18.5461 16.3187 18.1375C16.3187 17.7289 16.0659 17.4559 15.6846 17.4559H6.79684C6.41556 17.4559 6.16138 17.7289 6.16138 18.1375C6.16138 18.5461 6.41556 18.819 6.79684 18.819H13.7797V20.8652C13.7797 21.2738 14.0324 21.5468 14.4152 21.5468C14.7964 21.5468 15.0506 21.2738 15.0506 20.8652V18.819ZM12.5102 12.0005H18.8576L20 21.2738C20 22.7726 18.7305 24 17.0812 24H5.27318C3.62242 24 2.35294 22.7726 2.35294 21.2738L3.62242 12.0005H9.97126V12.2734C9.97126 12.8192 10.4796 13.3651 11.2407 13.3651C12.0018 13.3651 12.5102 12.8192 12.5102 12.2734V12.0005ZM21 14.2762C21 13.5111 21.546 13 22.3635 13C23.3175 13 24 13.6381 24 14.5318V17.3412C24 17.9779 23.5905 18.6174 23.0445 18.8715C22.9678 18.9445 22.9347 18.976 22.8954 18.9896C22.8655 19 22.832 19 22.773 19C22.3635 19 21.954 18.7459 21.8175 18.3619L21 14.5318V14.2762ZM2.35294 15.6765C2.35294 14.9114 1.92469 14.4004 1.28353 14.4004C0.534096 14.4004 0 15.0384 0 15.9321V18.7414C0 19.378 0.319971 20.0176 0.748221 20.2716C0.855283 20.4001 0.855283 20.4001 0.962346 20.4001C1.28353 20.4001 1.60472 20.1461 1.71178 19.762L2.35294 15.9321V15.6765Z" fill="white"/>
</svg>
