<svg width="25" height="25" viewBox="0 0 25 25" fill="none" xmlns="http://www.w3.org/2000/svg">
<path d="M12.5006 18.7501C10.843 18.7501 9.25326 18.0916 8.08115 16.9195C6.90905 15.7474 6.25057 14.1577 6.25057 12.5001C6.25057 10.8425 6.90905 9.25277 8.08115 8.08066C9.25326 6.90856 10.843 6.25008 12.5006 6.25008C14.1582 6.25008 15.7479 6.90856 16.92 8.08066C18.0921 9.25277 18.7506 10.8425 18.7506 12.5001C18.7506 14.1577 18.0921 15.7474 16.92 16.9195C15.7479 18.0916 14.1582 18.7501 12.5006 18.7501ZM12.5006 16.6667C13.6056 16.6667 14.6654 16.2278 15.4468 15.4464C16.2283 14.665 16.6672 13.6052 16.6672 12.5001C16.6672 11.395 16.2283 10.3352 15.4468 9.5538C14.6654 8.7724 13.6056 8.33342 12.5006 8.33342C11.3955 8.33342 10.3357 8.7724 9.55429 9.5538C8.77289 10.3352 8.3339 11.395 8.3339 12.5001C8.3339 13.6052 8.77289 14.665 9.55429 15.4464C10.3357 16.2278 11.3955 16.6667 12.5006 16.6667ZM11.4589 1.04175H13.5422V4.16675H11.4589V1.04175ZM11.4589 20.8334H13.5422V23.9584H11.4589V20.8334ZM3.66203 5.13446L5.13494 3.66154L7.34432 5.87092L5.8714 7.34383L3.66203 5.1355V5.13446ZM17.6568 19.1292L19.1297 17.6563L21.3391 19.8657L19.8662 21.3386L17.6568 19.1292ZM19.8662 3.6605L21.3391 5.13446L19.1297 7.34383L17.6568 5.87092L19.8662 3.66154V3.6605ZM5.8714 17.6563L7.34432 19.1292L5.13494 21.3386L3.66203 19.8657L5.8714 17.6563ZM23.9589 11.4584V13.5417H20.8339V11.4584H23.9589ZM4.16724 11.4584V13.5417H1.04224V11.4584H4.16724Z" fill="white"/>
</svg>
