<svg width="24" height="22" viewBox="0 0 24 22" fill="none" xmlns="http://www.w3.org/2000/svg">
<path fill-rule="evenodd" clip-rule="evenodd" d="M11.4 0C10.6268 0 10 0.626801 10 1.4V3H0L4.3125 7.5L0 12H10V20.6C10 20.739 10.0203 20.8733 10.058 21H8.5C8.22386 21 8 21.2239 8 21.5C8 21.7761 8.22386 22 8.5 22H11.4H11.6H14.5C14.7761 22 15 21.7761 15 21.5C15 21.2239 14.7761 21 14.5 21H12.942C12.9797 20.8733 13 20.739 13 20.6V12H19.6875L24 7.5L19.6875 3H13V1.4C13 0.626801 12.3732 0 11.6 0H11.4Z" fill="white"/>
</svg>
