<svg width="49" height="48" viewBox="0 0 49 48" fill="none" xmlns="http://www.w3.org/2000/svg">
<g filter="url(#filter0_d_1_3564)">
<path fill-rule="evenodd" clip-rule="evenodd" d="M24.5 40C34.4411 40 42.5 31.9411 42.5 22C42.5 12.0589 34.4411 4 24.5 4C14.5589 4 6.5 12.0589 6.5 22C6.5 31.9411 14.5589 40 24.5 40Z" fill="white"/>
</g>
<path fill-rule="evenodd" clip-rule="evenodd" d="M17 21.75C17 17.61 20.3525 14.25 24.4925 14.25C28.64 14.25 32 17.61 32 21.75C32 25.89 28.64 29.25 24.4925 29.25C20.3525 29.25 17 25.89 17 21.75ZM27.4775 18.75H29.69C28.97 17.5125 27.8225 16.5525 26.4425 16.08C26.8925 16.9125 27.2375 17.8125 27.4775 18.75ZM24.5 15.78C25.1225 16.68 25.61 17.6775 25.9325 18.75H23.0675C23.39 17.6775 23.8775 16.68 24.5 15.78ZM18.5 21.75C18.5 22.2675 18.575 22.77 18.695 23.25H21.23C21.17 22.755 21.125 22.26 21.125 21.75C21.125 21.24 21.17 20.745 21.23 20.25H18.695C18.575 20.73 18.5 21.2325 18.5 21.75ZM19.31 24.75H21.5225C21.7625 25.6875 22.1075 26.5875 22.5575 27.42C21.1775 26.9475 20.03 25.995 19.31 24.75ZM19.31 18.75H21.5225C21.7625 17.8125 22.1075 16.9125 22.5575 16.08C21.1775 16.5525 20.03 17.505 19.31 18.75ZM24.5 27.72C23.8775 26.82 23.39 25.8225 23.0675 24.75H25.9325C25.61 25.8225 25.1225 26.82 24.5 27.72ZM22.625 21.75C22.625 22.26 22.6775 22.755 22.745 23.25H26.255C26.3225 22.755 26.375 22.26 26.375 21.75C26.375 21.24 26.3225 20.7375 26.255 20.25H22.745C22.6775 20.7375 22.625 21.24 22.625 21.75ZM26.4425 27.42C26.8925 26.5875 27.2375 25.6875 27.4775 24.75H29.69C28.97 25.9875 27.8225 26.9475 26.4425 27.42ZM27.875 21.75C27.875 22.26 27.83 22.755 27.77 23.25H30.305C30.425 22.77 30.5 22.2675 30.5 21.75C30.5 21.2325 30.425 20.73 30.305 20.25H27.77C27.83 20.745 27.875 21.24 27.875 21.75Z" fill="#E8E8E8"/>
<defs>
<filter id="filter0_d_1_3564" x="0.5" y="0" width="48" height="48" filterUnits="userSpaceOnUse" color-interpolation-filters="sRGB">
<feFlood flood-opacity="0" result="BackgroundImageFix"/>
<feColorMatrix in="SourceAlpha" type="matrix" values="0 0 0 0 0 0 0 0 0 0 0 0 0 0 0 0 0 0 127 0" result="hardAlpha"/>
<feOffset dy="2"/>
<feGaussianBlur stdDeviation="3"/>
<feColorMatrix type="matrix" values="0 0 0 0 0.180392 0 0 0 0 0.239216 0 0 0 0 0.286275 0 0 0 0.2 0"/>
<feBlend mode="normal" in2="BackgroundImageFix" result="effect1_dropShadow_1_3564"/>
<feBlend mode="normal" in="SourceGraphic" in2="effect1_dropShadow_1_3564" result="shape"/>
</filter>
</defs>
</svg>
